<mxfile host="Electron" modified="2023-05-19T08:51:14.892Z" agent="Mozilla/5.0 (Windows NT 10.0; Win64; x64) AppleWebKit/537.36 (KHTML, like Gecko) draw.io/21.2.8 Chrome/112.0.5615.165 Electron/24.2.0 Safari/537.36" etag="VRlaX4FMw9PaXajmRFIQ" version="21.2.8" type="device">
  <diagram name="Page-1" id="7oLeeqB4X83rpsUO6XK-">
    <mxGraphModel dx="3267" dy="2576" grid="0" gridSize="10" guides="1" tooltips="1" connect="1" arrows="1" fold="1" page="1" pageScale="1" pageWidth="827" pageHeight="1169" math="0" shadow="0">
      <root>
        <mxCell id="0" />
        <mxCell id="1" parent="0" />
        <mxCell id="MiLEQ-yQkrviwAs_aEzq-76" value="APP_switchState" style="text;html=1;strokeColor=none;fillColor=none;align=center;verticalAlign=middle;whiteSpace=wrap;rounded=0;fontSize=16;fontColor=#000000;fontFamily=Calibri;" parent="1" vertex="1">
          <mxGeometry x="-578.87" y="-760.3000000000002" width="170" height="30" as="geometry" />
        </mxCell>
        <mxCell id="lFIIQ00Y4gTMDogE_Xks-12" style="edgeStyle=none;curved=1;rounded=0;orthogonalLoop=1;jettySize=auto;html=1;entryX=0.5;entryY=0;entryDx=0;entryDy=0;entryPerimeter=0;fontSize=12;startSize=8;endSize=8;" parent="1" source="Cari82qWPhB8FJyJu9n--68" target="lFIIQ00Y4gTMDogE_Xks-1" edge="1">
          <mxGeometry relative="1" as="geometry" />
        </mxCell>
        <UserObject label="&lt;div style=&quot;font-size: 1px&quot;&gt;&lt;font style=&quot;font-size: 11.29px; direction: ltr; letter-spacing: 0px; line-height: 120%; opacity: 1;&quot;&gt;Start&lt;br&gt;&lt;/font&gt;&lt;/div&gt;" Function="EN_DIO_Error_T DIO_init(uint8_t pinNumber, EN_DIO_PORT_T portNumber, EN_DIO_DIRECTION_T direction);" tags="Flowchart" id="Cari82qWPhB8FJyJu9n--68">
          <mxCell style="verticalAlign=middle;align=center;overflow=width;vsdxID=30;fillColor=#dae8fc;shape=stencil(tVLREoIgEPwaHnEQxsl3s/9gEpSJwDko7e+DsEkze2l627vdu5uFRaxyHe8FosR5sCcxqMZ3iO0Rpcp0ApQPCLEasUpaEC3Yi2lS3fOojOhsr3HDmObyMtsVcYqS29Qh5FEfklwrM5OXeUa/yjkcAwfr7TDpiyTfXvjkMR+Vw2A998qaBac5tAKHU1hq3i4oNwjRr9ofvayt/+Rk+yX/4iWA159KpXWKxJx/z0Bopfyw+g4=);strokeColor=#6c8ebf;spacingTop=-1;spacingBottom=-1;spacingLeft=-1;spacingRight=-1;points=[[0.5,1,0],[0.5,0,0],[0,0.5,0],[1,0.5,0]];labelBackgroundColor=none;rounded=1;html=1;whiteSpace=wrap;fontFamily=Calibri;" parent="1" vertex="1">
            <mxGeometry x="-604.5" y="-1121" width="101" height="38" as="geometry" />
          </mxCell>
        </UserObject>
        <mxCell id="MiLEQ-yQkrviwAs_aEzq-80" value="APP_Inititialization" style="text;html=1;strokeColor=none;fillColor=none;align=center;verticalAlign=middle;whiteSpace=wrap;rounded=0;fontSize=16;fontFamily=Calibri;" parent="1" vertex="1">
          <mxGeometry x="-790" y="-1137" width="138" height="30" as="geometry" />
        </mxCell>
        <mxCell id="lFIIQ00Y4gTMDogE_Xks-128" style="edgeStyle=none;curved=1;rounded=0;orthogonalLoop=1;jettySize=auto;html=1;entryX=0.5;entryY=0;entryDx=0;entryDy=0;entryPerimeter=0;fontSize=12;startSize=8;endSize=8;" parent="1" source="Cari82qWPhB8FJyJu9n--73" target="lFIIQ00Y4gTMDogE_Xks-105" edge="1">
          <mxGeometry relative="1" as="geometry" />
        </mxCell>
        <UserObject label="&lt;div style=&quot;font-size: 1px&quot;&gt;&lt;font style=&quot;font-size: 11.29px; direction: ltr; letter-spacing: 0px; line-height: 120%; opacity: 1;&quot;&gt;Start&lt;br&gt;&lt;/font&gt;&lt;/div&gt;" Function="EN_DIO_Error_T DIO_write(uint8_t pinNumber, EN_DIO_PORT_T portNumber, uint8_t value); " tags="Flowchart" id="Cari82qWPhB8FJyJu9n--73">
          <mxCell style="verticalAlign=middle;align=center;overflow=width;vsdxID=152;fillColor=#dae8fc;shape=stencil(tVLREoIgEPwaHnEQxsl3s/9gEpSJwDko7e+DsEkze2l627vdu5uFRaxyHe8FosR5sCcxqMZ3iO0Rpcp0ApQPCLEasUpaEC3Yi2lS3fOojOhsr3HDmObyMtsVcYqS29Qh5FEfklwrM5OXeUa/yjkcAwfr7TDpiyTfXvjkMR+Vw2A998qaBac5tAKHU1hq3i4oNwjRr9ofvayt/+Rk+yX/4iWA159KpXWKxJx/z0Bopfyw+g4=);strokeColor=#6c8ebf;spacingTop=-1;spacingBottom=-1;spacingLeft=-1;spacingRight=-1;points=[[0.5,1,0],[0.5,0,0],[0,0.5,0],[1,0.5,0]];labelBackgroundColor=none;rounded=1;html=1;whiteSpace=wrap;fontFamily=Calibri;" parent="1" vertex="1">
            <mxGeometry x="144.1238244514106" y="-1035.85" width="86.75235109717869" height="38" as="geometry" />
          </mxCell>
        </UserObject>
        <mxCell id="MiLEQ-yQkrviwAs_aEzq-83" value="APP_startProgram" style="text;strokeColor=none;align=center;fillColor=none;html=1;verticalAlign=middle;whiteSpace=wrap;rounded=0;fontSize=16;fontFamily=Calibri;" parent="1" vertex="1">
          <mxGeometry x="211.99999999999994" y="-1087" width="175.29" height="31" as="geometry" />
        </mxCell>
        <mxCell id="3IBphvjYudPTPOBFQOcQ-11" style="edgeStyle=orthogonalEdgeStyle;rounded=0;orthogonalLoop=1;jettySize=auto;html=1;entryX=0.5;entryY=0;entryDx=0;entryDy=0;entryPerimeter=0;" edge="1" parent="1" source="lFIIQ00Y4gTMDogE_Xks-1" target="3IBphvjYudPTPOBFQOcQ-1">
          <mxGeometry relative="1" as="geometry" />
        </mxCell>
        <UserObject label="&lt;div style=&quot;&quot;&gt;&lt;span style=&quot;font-size: 11.29px;&quot;&gt;Init Button Driver&lt;br&gt;&lt;i&gt;toggle button for set default rotation direction&lt;/i&gt;&lt;/span&gt;&lt;/div&gt;" Function="EN_DIO_Error_T DIO_toggle(uint8_t pinNumber, EN_DIO_PORT_T portNumber);  " tags="Flowchart" id="lFIIQ00Y4gTMDogE_Xks-1">
          <mxCell style="verticalAlign=middle;align=center;overflow=width;vsdxID=274;fillColor=#d5e8d4;shape=stencil(nZBLDoAgDERP0z3SIyjew0SURgSD+Lu9kMZoXLhwN9O+tukAlrNpJg1SzDH4QW/URgNYgZTkjA4UkwJUgGXng+6DX1zLfmoymdXo17xh5zmRJ6Q42BWCfc2oJfdAr+Yv+AP9Cb7OJ3H/2JG1HNGz/84klThPVCc=);strokeColor=#82b366;spacingTop=-1;spacingBottom=-1;spacingLeft=-1;spacingRight=-1;points=[[0,0.5,0],[1,0.5,0],[0.5,1,0],[0.5,0,0]];labelBackgroundColor=none;rounded=1;html=1;whiteSpace=wrap;fontFamily=Calibri;" parent="1" vertex="1">
            <mxGeometry x="-620" y="-1068" width="132" height="47" as="geometry" />
          </mxCell>
        </UserObject>
        <UserObject label="&lt;div style=&quot;font-size: 1px&quot;&gt;&lt;font style=&quot;font-size: 11.29px; direction: ltr; letter-spacing: 0px; line-height: 120%; opacity: 1;&quot;&gt;End&lt;br&gt;&lt;/font&gt;&lt;/div&gt;" Function="EN_DIO_Error_T DIO_init(uint8_t pinNumber, EN_DIO_PORT_T portNumber, EN_DIO_DIRECTION_T direction);" tags="Flowchart" id="lFIIQ00Y4gTMDogE_Xks-2">
          <mxCell style="verticalAlign=middle;align=center;overflow=width;vsdxID=30;fillColor=#dae8fc;shape=stencil(tVLREoIgEPwaHnEQxsl3s/9gEpSJwDko7e+DsEkze2l627vdu5uFRaxyHe8FosR5sCcxqMZ3iO0Rpcp0ApQPCLEasUpaEC3Yi2lS3fOojOhsr3HDmObyMtsVcYqS29Qh5FEfklwrM5OXeUa/yjkcAwfr7TDpiyTfXvjkMR+Vw2A998qaBac5tAKHU1hq3i4oNwjRr9ofvayt/+Rk+yX/4iWA159KpXWKxJx/z0Bopfyw+g4=);strokeColor=#6c8ebf;spacingTop=-1;spacingBottom=-1;spacingLeft=-1;spacingRight=-1;points=[[0.5,1,0],[0.5,0,0],[0,0.5,0],[1,0.5,0]];labelBackgroundColor=none;rounded=1;html=1;whiteSpace=wrap;fontFamily=Calibri;" parent="1" vertex="1">
            <mxGeometry x="-417.5" y="-839" width="101" height="38" as="geometry" />
          </mxCell>
        </UserObject>
        <mxCell id="3IBphvjYudPTPOBFQOcQ-119" style="edgeStyle=orthogonalEdgeStyle;rounded=0;orthogonalLoop=1;jettySize=auto;html=1;entryX=0.5;entryY=0;entryDx=0;entryDy=0;entryPerimeter=0;" edge="1" parent="1" source="lFIIQ00Y4gTMDogE_Xks-35" target="lFIIQ00Y4gTMDogE_Xks-39">
          <mxGeometry relative="1" as="geometry" />
        </mxCell>
        <UserObject label="&lt;div style=&quot;font-size: 1px&quot;&gt;&lt;font style=&quot;font-size: 11.29px; direction: ltr; letter-spacing: 0px; line-height: 120%; opacity: 1;&quot;&gt;Start&lt;br&gt;&lt;/font&gt;&lt;/div&gt;" Function="EN_DIO_Error_T DIO_port_write(EN_DIO_PORT_T portNumber, uint8_t byte, uint8_t mask)" tags="Flowchart" id="lFIIQ00Y4gTMDogE_Xks-35">
          <mxCell style="verticalAlign=middle;align=center;overflow=width;vsdxID=293;fillColor=#dae8fc;shape=stencil(tVLREoIgEPwaHnEQxsl3s/9gEpSJwDko7e+DsEkze2l627vdu5uFRaxyHe8FosR5sCcxqMZ3iO0Rpcp0ApQPCLEasUpaEC3Yi2lS3fOojOhsr3HDmObyMtsVcYqS29Qh5FEfklwrM5OXeUa/yjkcAwfr7TDpiyTfXvjkMR+Vw2A998qaBac5tAKHU1hq3i4oNwjRr9ofvayt/+Rk+yX/4iWA159KpXWKxJx/z0Bopfyw+g4=);strokeColor=#6c8ebf;spacingTop=-1;spacingBottom=-1;spacingLeft=-1;spacingRight=-1;points=[[0.5,1,0],[0.5,0,0],[0,0.5,0],[1,0.5,0]];labelBackgroundColor=none;rounded=1;html=1;whiteSpace=wrap;fontFamily=Calibri;" parent="1" vertex="1">
            <mxGeometry x="-665" y="-685.3000000000001" width="101" height="38" as="geometry" />
          </mxCell>
        </UserObject>
        <mxCell id="lFIIQ00Y4gTMDogE_Xks-81" style="edgeStyle=none;curved=1;rounded=0;orthogonalLoop=1;jettySize=auto;html=1;entryX=0.5;entryY=0;entryDx=0;entryDy=0;fontSize=12;startSize=8;endSize=8;" parent="1" source="lFIIQ00Y4gTMDogE_Xks-39" target="lFIIQ00Y4gTMDogE_Xks-80" edge="1">
          <mxGeometry relative="1" as="geometry" />
        </mxCell>
        <UserObject label="&lt;div style=&quot;font-size: 1px&quot;&gt;&lt;font style=&quot;font-size: 11.29px; direction: ltr; letter-spacing: 0px; line-height: 120%; opacity: 1;&quot;&gt;Switch `&lt;b&gt;&lt;i&gt;state&lt;/i&gt;&lt;/b&gt;`&lt;br&gt;&lt;/font&gt;&lt;/div&gt;" Function="EN_DIO_Error_T DIO_port_write(EN_DIO_PORT_T portNumber, uint8_t byte, uint8_t mask)" tags="Flowchart" id="lFIIQ00Y4gTMDogE_Xks-39">
          <mxCell style="verticalAlign=middle;align=center;overflow=width;vsdxID=309;fillColor=#d5e8d4;shape=stencil(nZBLDoAgDERP0z3SIyjew0SURgSD+Lu9kMZoXLhwN9O+tukAlrNpJg1SzDH4QW/URgNYgZTkjA4UkwJUgGXng+6DX1zLfmoymdXo17xh5zmRJ6Q42BWCfc2oJfdAr+Yv+AP9Cb7OJ3H/2JG1HNGz/84klThPVCc=);strokeColor=#82b366;spacingTop=-1;spacingBottom=-1;spacingLeft=-1;spacingRight=-1;points=[[0,0.5,0],[1,0.5,0],[0.5,1,0],[0.5,0,0]];labelBackgroundColor=none;rounded=1;html=1;whiteSpace=wrap;fontFamily=Calibri;" parent="1" vertex="1">
            <mxGeometry x="-665" y="-620.3000000000001" width="101" height="38" as="geometry" />
          </mxCell>
        </UserObject>
        <mxCell id="lFIIQ00Y4gTMDogE_Xks-87" style="edgeStyle=none;curved=1;rounded=0;orthogonalLoop=1;jettySize=auto;html=1;entryX=0;entryY=0.5;entryDx=0;entryDy=0;entryPerimeter=0;fontSize=12;startSize=8;endSize=8;" parent="1" source="lFIIQ00Y4gTMDogE_Xks-80" target="lFIIQ00Y4gTMDogE_Xks-84" edge="1">
          <mxGeometry relative="1" as="geometry" />
        </mxCell>
        <mxCell id="lFIIQ00Y4gTMDogE_Xks-101" style="edgeStyle=none;curved=1;rounded=0;orthogonalLoop=1;jettySize=auto;html=1;entryX=0.5;entryY=0;entryDx=0;entryDy=0;fontSize=12;startSize=8;endSize=8;" parent="1" source="lFIIQ00Y4gTMDogE_Xks-80" target="lFIIQ00Y4gTMDogE_Xks-82" edge="1">
          <mxGeometry relative="1" as="geometry" />
        </mxCell>
        <mxCell id="lFIIQ00Y4gTMDogE_Xks-80" value="case `&lt;b&gt;&lt;i&gt;INITIAL&lt;/i&gt;&lt;/b&gt;`" style="rhombus;whiteSpace=wrap;html=1;fontSize=12;fontFamily=Calibri;fillColor=#fff2cc;strokeColor=#d6b656;" parent="1" vertex="1">
          <mxGeometry x="-654.5" y="-561.65" width="80" height="80" as="geometry" />
        </mxCell>
        <mxCell id="lFIIQ00Y4gTMDogE_Xks-93" style="edgeStyle=none;curved=1;rounded=0;orthogonalLoop=1;jettySize=auto;html=1;entryX=0;entryY=0.5;entryDx=0;entryDy=0;entryPerimeter=0;fontSize=12;startSize=8;endSize=8;" parent="1" source="lFIIQ00Y4gTMDogE_Xks-82" target="lFIIQ00Y4gTMDogE_Xks-92" edge="1">
          <mxGeometry relative="1" as="geometry" />
        </mxCell>
        <mxCell id="lFIIQ00Y4gTMDogE_Xks-102" style="edgeStyle=none;curved=1;rounded=0;orthogonalLoop=1;jettySize=auto;html=1;entryX=0.5;entryY=0;entryDx=0;entryDy=0;fontSize=12;startSize=8;endSize=8;" parent="1" source="lFIIQ00Y4gTMDogE_Xks-82" target="lFIIQ00Y4gTMDogE_Xks-83" edge="1">
          <mxGeometry relative="1" as="geometry" />
        </mxCell>
        <mxCell id="lFIIQ00Y4gTMDogE_Xks-82" value="case `&lt;b&gt;&lt;i&gt;SET_DIR&lt;/i&gt;&lt;/b&gt;`" style="rhombus;whiteSpace=wrap;html=1;fontSize=12;fontFamily=Calibri;fillColor=#fff2cc;strokeColor=#d6b656;" parent="1" vertex="1">
          <mxGeometry x="-658.75" y="-458.65" width="88.5" height="89" as="geometry" />
        </mxCell>
        <mxCell id="lFIIQ00Y4gTMDogE_Xks-96" style="edgeStyle=none;curved=1;rounded=0;orthogonalLoop=1;jettySize=auto;html=1;entryX=0;entryY=0.5;entryDx=0;entryDy=0;entryPerimeter=0;fontSize=12;startSize=8;endSize=8;" parent="1" source="lFIIQ00Y4gTMDogE_Xks-83" target="lFIIQ00Y4gTMDogE_Xks-95" edge="1">
          <mxGeometry relative="1" as="geometry" />
        </mxCell>
        <mxCell id="lFIIQ00Y4gTMDogE_Xks-103" style="edgeStyle=orthogonalEdgeStyle;rounded=0;orthogonalLoop=1;jettySize=auto;html=1;entryX=0;entryY=0.5;entryDx=0;entryDy=0;entryPerimeter=0;fontSize=12;startSize=8;endSize=8;exitX=0.5;exitY=1;exitDx=0;exitDy=0;" parent="1" source="lFIIQ00Y4gTMDogE_Xks-83" target="lFIIQ00Y4gTMDogE_Xks-88" edge="1">
          <mxGeometry relative="1" as="geometry" />
        </mxCell>
        <mxCell id="lFIIQ00Y4gTMDogE_Xks-83" value="case `&lt;b&gt;&lt;i&gt;RUNNING&lt;/i&gt;&lt;/b&gt;`" style="rhombus;whiteSpace=wrap;html=1;fontSize=12;fontFamily=Calibri;fillColor=#fff2cc;strokeColor=#d6b656;" parent="1" vertex="1">
          <mxGeometry x="-654.5" y="-282.65" width="80" height="80" as="geometry" />
        </mxCell>
        <UserObject label="&lt;div style=&quot;font-size: 1px&quot;&gt;&lt;font style=&quot;font-size: 11.29px; direction: ltr; letter-spacing: 0px; line-height: 120%; opacity: 1;&quot;&gt;Print on LCD (∞):&lt;br&gt;Welcome&lt;br&gt;Press Start&lt;/font&gt;&lt;/div&gt;" Function="EN_DIO_Error_T DIO_toggle(uint8_t pinNumber, EN_DIO_PORT_T portNumber);  " tags="Flowchart" id="lFIIQ00Y4gTMDogE_Xks-84">
          <mxCell style="verticalAlign=middle;align=center;overflow=width;vsdxID=274;fillColor=#d5e8d4;shape=stencil(nZBLDoAgDERP0z3SIyjew0SURgSD+Lu9kMZoXLhwN9O+tukAlrNpJg1SzDH4QW/URgNYgZTkjA4UkwJUgGXng+6DX1zLfmoymdXo17xh5zmRJ6Q42BWCfc2oJfdAr+Yv+AP9Cb7OJ3H/2JG1HNGz/84klThPVCc=);strokeColor=#82b366;spacingTop=-1;spacingBottom=-1;spacingLeft=-1;spacingRight=-1;points=[[0,0.5,0],[1,0.5,0],[0.5,1,0],[0.5,0,0]];labelBackgroundColor=none;rounded=1;html=1;whiteSpace=wrap;fontFamily=Calibri;" parent="1" vertex="1">
            <mxGeometry x="-512.5" y="-546.15" width="141.5" height="49" as="geometry" />
          </mxCell>
        </UserObject>
        <mxCell id="lFIIQ00Y4gTMDogE_Xks-91" style="edgeStyle=orthogonalEdgeStyle;rounded=0;orthogonalLoop=1;jettySize=auto;html=1;entryX=0.5;entryY=0;entryDx=0;entryDy=0;entryPerimeter=0;fontSize=12;startSize=8;endSize=8;exitX=1;exitY=0.5;exitDx=0;exitDy=0;exitPerimeter=0;" parent="1" source="lFIIQ00Y4gTMDogE_Xks-84" target="lFIIQ00Y4gTMDogE_Xks-88" edge="1">
          <mxGeometry relative="1" as="geometry">
            <mxPoint x="-371" y="-454.6500000000001" as="sourcePoint" />
          </mxGeometry>
        </mxCell>
        <mxCell id="lFIIQ00Y4gTMDogE_Xks-90" style="edgeStyle=none;curved=1;rounded=0;orthogonalLoop=1;jettySize=auto;html=1;entryX=0.5;entryY=0;entryDx=0;entryDy=0;entryPerimeter=0;fontSize=12;startSize=8;endSize=8;" parent="1" source="lFIIQ00Y4gTMDogE_Xks-88" target="lFIIQ00Y4gTMDogE_Xks-89" edge="1">
          <mxGeometry relative="1" as="geometry" />
        </mxCell>
        <UserObject label="&lt;div style=&quot;&quot;&gt;&lt;span style=&quot;font-size: 11.29px;&quot;&gt;Set global `&lt;b&gt;&lt;i&gt;appState`&amp;nbsp;&lt;/i&gt;&lt;/b&gt;to `&lt;b&gt;&lt;i&gt;state&lt;/i&gt;&lt;/b&gt;`&lt;/span&gt;&lt;/div&gt;" Function="EN_DIO_Error_T DIO_toggle(uint8_t pinNumber, EN_DIO_PORT_T portNumber);  " tags="Flowchart" id="lFIIQ00Y4gTMDogE_Xks-88">
          <mxCell style="verticalAlign=middle;align=center;overflow=width;vsdxID=274;fillColor=#d5e8d4;shape=stencil(nZBLDoAgDERP0z3SIyjew0SURgSD+Lu9kMZoXLhwN9O+tukAlrNpJg1SzDH4QW/URgNYgZTkjA4UkwJUgGXng+6DX1zLfmoymdXo17xh5zmRJ6Q42BWCfc2oJfdAr+Yv+AP9Cb7OJ3H/2JG1HNGz/84klThPVCc=);strokeColor=#82b366;spacingTop=-1;spacingBottom=-1;spacingLeft=-1;spacingRight=-1;points=[[0,0.5,0],[1,0.5,0],[0.5,1,0],[0.5,0,0]];labelBackgroundColor=none;rounded=1;html=1;whiteSpace=wrap;fontFamily=Calibri;" parent="1" vertex="1">
            <mxGeometry x="-341" y="-177.64999999999995" width="149" height="30" as="geometry" />
          </mxCell>
        </UserObject>
        <UserObject label="&lt;div style=&quot;font-size: 1px&quot;&gt;&lt;font style=&quot;font-size: 11.29px; direction: ltr; letter-spacing: 0px; line-height: 120%; opacity: 1;&quot;&gt;End&lt;br&gt;&lt;/font&gt;&lt;/div&gt;" Function="EN_DIO_Error_T DIO_port_write(EN_DIO_PORT_T portNumber, uint8_t byte, uint8_t mask)" tags="Flowchart" id="lFIIQ00Y4gTMDogE_Xks-89">
          <mxCell style="verticalAlign=middle;align=center;overflow=width;vsdxID=293;fillColor=#dae8fc;shape=stencil(tVLREoIgEPwaHnEQxsl3s/9gEpSJwDko7e+DsEkze2l627vdu5uFRaxyHe8FosR5sCcxqMZ3iO0Rpcp0ApQPCLEasUpaEC3Yi2lS3fOojOhsr3HDmObyMtsVcYqS29Qh5FEfklwrM5OXeUa/yjkcAwfr7TDpiyTfXvjkMR+Vw2A998qaBac5tAKHU1hq3i4oNwjRr9ofvayt/+Rk+yX/4iWA159KpXWKxJx/z0Bopfyw+g4=);strokeColor=#6c8ebf;spacingTop=-1;spacingBottom=-1;spacingLeft=-1;spacingRight=-1;points=[[0.5,1,0],[0.5,0,0],[0,0.5,0],[1,0.5,0]];labelBackgroundColor=none;rounded=1;html=1;whiteSpace=wrap;fontFamily=Calibri;" parent="1" vertex="1">
            <mxGeometry x="-317" y="-121.65000000000006" width="101" height="38" as="geometry" />
          </mxCell>
        </UserObject>
        <mxCell id="3IBphvjYudPTPOBFQOcQ-23" value="" style="edgeStyle=orthogonalEdgeStyle;rounded=0;orthogonalLoop=1;jettySize=auto;html=1;" edge="1" parent="1" source="lFIIQ00Y4gTMDogE_Xks-92" target="3IBphvjYudPTPOBFQOcQ-22">
          <mxGeometry relative="1" as="geometry" />
        </mxCell>
        <UserObject label="&lt;div style=&quot;&quot;&gt;&lt;span style=&quot;font-size: 11.29px;&quot;&gt;Reset delay flag&lt;br&gt;start async delay (5000s)&lt;/span&gt;&lt;/div&gt;" Function="EN_DIO_Error_T DIO_toggle(uint8_t pinNumber, EN_DIO_PORT_T portNumber);  " tags="Flowchart" id="lFIIQ00Y4gTMDogE_Xks-92">
          <mxCell style="verticalAlign=middle;align=center;overflow=width;vsdxID=274;fillColor=#d5e8d4;shape=stencil(nZBLDoAgDERP0z3SIyjew0SURgSD+Lu9kMZoXLhwN9O+tukAlrNpJg1SzDH4QW/URgNYgZTkjA4UkwJUgGXng+6DX1zLfmoymdXo17xh5zmRJ6Q42BWCfc2oJfdAr+Yv+AP9Cb7OJ3H/2JG1HNGz/84klThPVCc=);strokeColor=#82b366;spacingTop=-1;spacingBottom=-1;spacingLeft=-1;spacingRight=-1;points=[[0,0.5,0],[1,0.5,0],[0.5,1,0],[0.5,0,0]];labelBackgroundColor=none;rounded=1;html=1;whiteSpace=wrap;fontFamily=Calibri;" parent="1" vertex="1">
            <mxGeometry x="-512.5" y="-431.65" width="141.5" height="35" as="geometry" />
          </mxCell>
        </UserObject>
        <mxCell id="3IBphvjYudPTPOBFQOcQ-26" style="edgeStyle=orthogonalEdgeStyle;rounded=0;orthogonalLoop=1;jettySize=auto;html=1;" edge="1" parent="1" source="lFIIQ00Y4gTMDogE_Xks-95">
          <mxGeometry relative="1" as="geometry">
            <mxPoint x="-268" y="-242.64999999999995" as="targetPoint" />
          </mxGeometry>
        </mxCell>
        <UserObject label="&lt;div style=&quot;&quot;&gt;&lt;font style=&quot;direction: ltr; line-height: 120%; opacity: 1;&quot;&gt;Print on LCD (∞):&lt;br&gt;&lt;span style=&quot;font-size: 11.29px; letter-spacing: 0px;&quot;&gt;Speed:00% Dir:S&lt;/span&gt;&lt;br&gt;&lt;span style=&quot;font-size: 11.29px;&quot;&gt;Dist.: 000 Cm&lt;/span&gt;&lt;br&gt;&lt;/font&gt;&lt;/div&gt;" Function="EN_DIO_Error_T DIO_toggle(uint8_t pinNumber, EN_DIO_PORT_T portNumber);  " tags="Flowchart" id="lFIIQ00Y4gTMDogE_Xks-95">
          <mxCell style="verticalAlign=middle;align=center;overflow=width;vsdxID=274;fillColor=#d5e8d4;shape=stencil(nZBLDoAgDERP0z3SIyjew0SURgSD+Lu9kMZoXLhwN9O+tukAlrNpJg1SzDH4QW/URgNYgZTkjA4UkwJUgGXng+6DX1zLfmoymdXo17xh5zmRJ6Q42BWCfc2oJfdAr+Yv+AP9Cb7OJ3H/2JG1HNGz/84klThPVCc=);strokeColor=#82b366;spacingTop=-1;spacingBottom=-1;spacingLeft=-1;spacingRight=-1;points=[[0,0.5,0],[1,0.5,0],[0.5,1,0],[0.5,0,0]];labelBackgroundColor=none;rounded=1;html=1;whiteSpace=wrap;fontFamily=Calibri;" parent="1" vertex="1">
            <mxGeometry x="-512.5" y="-266.65" width="141.5" height="48" as="geometry" />
          </mxCell>
        </UserObject>
        <mxCell id="lFIIQ00Y4gTMDogE_Xks-104" style="edgeStyle=none;curved=1;rounded=0;orthogonalLoop=1;jettySize=auto;html=1;entryX=0.5;entryY=0;entryDx=0;entryDy=0;fontSize=12;startSize=8;endSize=8;" parent="1" source="lFIIQ00Y4gTMDogE_Xks-105" target="3IBphvjYudPTPOBFQOcQ-125" edge="1">
          <mxGeometry relative="1" as="geometry">
            <mxPoint x="187.74999999999994" y="-904.1999999999998" as="targetPoint" />
          </mxGeometry>
        </mxCell>
        <UserObject label="&lt;div style=&quot;font-size: 1px&quot;&gt;&lt;font style=&quot;font-size: 11.29px; direction: ltr; letter-spacing: 0px; line-height: 120%; opacity: 1;&quot;&gt;Switch `&lt;b&gt;&lt;i&gt;state&lt;/i&gt;&lt;/b&gt;`&lt;br&gt;&lt;/font&gt;&lt;/div&gt;" Function="EN_DIO_Error_T DIO_port_write(EN_DIO_PORT_T portNumber, uint8_t byte, uint8_t mask)" tags="Flowchart" id="lFIIQ00Y4gTMDogE_Xks-105">
          <mxCell style="verticalAlign=middle;align=center;overflow=width;vsdxID=309;fillColor=#d5e8d4;shape=stencil(nZBLDoAgDERP0z3SIyjew0SURgSD+Lu9kMZoXLhwN9O+tukAlrNpJg1SzDH4QW/URgNYgZTkjA4UkwJUgGXng+6DX1zLfmoymdXo17xh5zmRJ6Q42BWCfc2oJfdAr+Yv+AP9Cb7OJ3H/2JG1HNGz/84klThPVCc=);strokeColor=#82b366;spacingTop=-1;spacingBottom=-1;spacingLeft=-1;spacingRight=-1;points=[[0,0.5,0],[1,0.5,0],[0.5,1,0],[0.5,0,0]];labelBackgroundColor=none;rounded=1;html=1;whiteSpace=wrap;fontFamily=Calibri;" parent="1" vertex="1">
            <mxGeometry x="136.99999999999994" y="-962.85" width="101" height="38" as="geometry" />
          </mxCell>
        </UserObject>
        <mxCell id="lFIIQ00Y4gTMDogE_Xks-223" value="APP_delayNotification" style="text;html=1;strokeColor=none;fillColor=none;align=center;verticalAlign=middle;whiteSpace=wrap;rounded=0;fontSize=16;fontColor=#000000;fontFamily=Calibri;" parent="1" vertex="1">
          <mxGeometry x="-216.36999999999998" y="-1113.31" width="170" height="30" as="geometry" />
        </mxCell>
        <mxCell id="lFIIQ00Y4gTMDogE_Xks-253" style="edgeStyle=none;curved=1;rounded=0;orthogonalLoop=1;jettySize=auto;html=1;entryX=0.5;entryY=0;entryDx=0;entryDy=0;fontSize=12;startSize=8;endSize=8;entryPerimeter=0;" parent="1" source="lFIIQ00Y4gTMDogE_Xks-225" target="lFIIQ00Y4gTMDogE_Xks-239" edge="1">
          <mxGeometry relative="1" as="geometry">
            <mxPoint x="-146.25000000000009" y="-986.66" as="targetPoint" />
          </mxGeometry>
        </mxCell>
        <UserObject label="&lt;div style=&quot;font-size: 1px&quot;&gt;&lt;font style=&quot;font-size: 11.29px; direction: ltr; letter-spacing: 0px; line-height: 120%; opacity: 1;&quot;&gt;Start&lt;br&gt;&lt;/font&gt;&lt;/div&gt;" Function="EN_DIO_Error_T DIO_port_write(EN_DIO_PORT_T portNumber, uint8_t byte, uint8_t mask)" tags="Flowchart" id="lFIIQ00Y4gTMDogE_Xks-225">
          <mxCell style="verticalAlign=middle;align=center;overflow=width;vsdxID=293;fillColor=#dae8fc;shape=stencil(tVLREoIgEPwaHnEQxsl3s/9gEpSJwDko7e+DsEkze2l627vdu5uFRaxyHe8FosR5sCcxqMZ3iO0Rpcp0ApQPCLEasUpaEC3Yi2lS3fOojOhsr3HDmObyMtsVcYqS29Qh5FEfklwrM5OXeUa/yjkcAwfr7TDpiyTfXvjkMR+Vw2A998qaBac5tAKHU1hq3i4oNwjRr9ofvayt/+Rk+yX/4iWA159KpXWKxJx/z0Bopfyw+g4=);strokeColor=#6c8ebf;spacingTop=-1;spacingBottom=-1;spacingLeft=-1;spacingRight=-1;points=[[0.5,1,0],[0.5,0,0],[0,0.5,0],[1,0.5,0]];labelBackgroundColor=none;rounded=1;html=1;whiteSpace=wrap;fontFamily=Calibri;" parent="1" vertex="1">
            <mxGeometry x="-196.74999999999997" y="-1056.31" width="101" height="38" as="geometry" />
          </mxCell>
        </UserObject>
        <mxCell id="lFIIQ00Y4gTMDogE_Xks-254" style="edgeStyle=none;curved=1;rounded=0;orthogonalLoop=1;jettySize=auto;html=1;entryX=0.5;entryY=0;entryDx=0;entryDy=0;entryPerimeter=0;fontSize=12;startSize=8;endSize=8;" parent="1" source="lFIIQ00Y4gTMDogE_Xks-239" target="lFIIQ00Y4gTMDogE_Xks-244" edge="1">
          <mxGeometry relative="1" as="geometry" />
        </mxCell>
        <UserObject label="&lt;div style=&quot;&quot;&gt;&lt;span style=&quot;font-size: 11.29px;&quot;&gt;set delayState to `&lt;b&gt;&lt;i&gt;DELAY_DONE&lt;/i&gt;&lt;/b&gt;`&lt;/span&gt;&lt;/div&gt;" Function="EN_DIO_Error_T DIO_toggle(uint8_t pinNumber, EN_DIO_PORT_T portNumber);  " tags="Flowchart" id="lFIIQ00Y4gTMDogE_Xks-239">
          <mxCell style="verticalAlign=middle;align=center;overflow=width;vsdxID=274;fillColor=#d5e8d4;shape=stencil(nZBLDoAgDERP0z3SIyjew0SURgSD+Lu9kMZoXLhwN9O+tukAlrNpJg1SzDH4QW/URgNYgZTkjA4UkwJUgGXng+6DX1zLfmoymdXo17xh5zmRJ6Q42BWCfc2oJfdAr+Yv+AP9Cb7OJ3H/2JG1HNGz/84klThPVCc=);strokeColor=#82b366;spacingTop=-1;spacingBottom=-1;spacingLeft=-1;spacingRight=-1;points=[[0,0.5,0],[1,0.5,0],[0.5,1,0],[0.5,0,0]];labelBackgroundColor=none;rounded=1;html=1;whiteSpace=wrap;fontFamily=Calibri;" parent="1" vertex="1">
            <mxGeometry x="-216.99999999999997" y="-985.3399999999998" width="141.5" height="36.35" as="geometry" />
          </mxCell>
        </UserObject>
        <UserObject label="&lt;div style=&quot;font-size: 1px&quot;&gt;&lt;font style=&quot;font-size: 11.29px; direction: ltr; letter-spacing: 0px; line-height: 120%; opacity: 1;&quot;&gt;End&lt;br&gt;&lt;/font&gt;&lt;/div&gt;" Function="EN_DIO_Error_T DIO_port_write(EN_DIO_PORT_T portNumber, uint8_t byte, uint8_t mask)" tags="Flowchart" id="lFIIQ00Y4gTMDogE_Xks-244">
          <mxCell style="verticalAlign=middle;align=center;overflow=width;vsdxID=293;fillColor=#dae8fc;shape=stencil(tVLREoIgEPwaHnEQxsl3s/9gEpSJwDko7e+DsEkze2l627vdu5uFRaxyHe8FosR5sCcxqMZ3iO0Rpcp0ApQPCLEasUpaEC3Yi2lS3fOojOhsr3HDmObyMtsVcYqS29Qh5FEfklwrM5OXeUa/yjkcAwfr7TDpiyTfXvjkMR+Vw2A998qaBac5tAKHU1hq3i4oNwjRr9ofvayt/+Rk+yX/4iWA159KpXWKxJx/z0Bopfyw+g4=);strokeColor=#6c8ebf;spacingTop=-1;spacingBottom=-1;spacingLeft=-1;spacingRight=-1;points=[[0.5,1,0],[0.5,0,0],[0,0.5,0],[1,0.5,0]];labelBackgroundColor=none;rounded=1;html=1;whiteSpace=wrap;fontFamily=Calibri;" parent="1" vertex="1">
            <mxGeometry x="-196.74999999999997" y="-915.9899999999999" width="101" height="38" as="geometry" />
          </mxCell>
        </UserObject>
        <mxCell id="3IBphvjYudPTPOBFQOcQ-13" style="edgeStyle=orthogonalEdgeStyle;rounded=0;orthogonalLoop=1;jettySize=auto;html=1;entryX=0.5;entryY=0;entryDx=0;entryDy=0;entryPerimeter=0;" edge="1" parent="1" source="3IBphvjYudPTPOBFQOcQ-1" target="3IBphvjYudPTPOBFQOcQ-2">
          <mxGeometry relative="1" as="geometry" />
        </mxCell>
        <UserObject label="&lt;div style=&quot;&quot;&gt;&lt;span style=&quot;font-size: 11.29px;&quot;&gt;Init Keypad Driver&lt;/span&gt;&lt;/div&gt;" Function="EN_DIO_Error_T DIO_toggle(uint8_t pinNumber, EN_DIO_PORT_T portNumber);  " tags="Flowchart" id="3IBphvjYudPTPOBFQOcQ-1">
          <mxCell style="verticalAlign=middle;align=center;overflow=width;vsdxID=274;fillColor=#d5e8d4;shape=stencil(nZBLDoAgDERP0z3SIyjew0SURgSD+Lu9kMZoXLhwN9O+tukAlrNpJg1SzDH4QW/URgNYgZTkjA4UkwJUgGXng+6DX1zLfmoymdXo17xh5zmRJ6Q42BWCfc2oJfdAr+Yv+AP9Cb7OJ3H/2JG1HNGz/84klThPVCc=);strokeColor=#82b366;spacingTop=-1;spacingBottom=-1;spacingLeft=-1;spacingRight=-1;points=[[0,0.5,0],[1,0.5,0],[0.5,1,0],[0.5,0,0]];labelBackgroundColor=none;rounded=1;html=1;whiteSpace=wrap;fontFamily=Calibri;" vertex="1" parent="1">
            <mxGeometry x="-603" y="-1002.65" width="98" height="30.65" as="geometry" />
          </mxCell>
        </UserObject>
        <mxCell id="3IBphvjYudPTPOBFQOcQ-14" style="edgeStyle=orthogonalEdgeStyle;rounded=0;orthogonalLoop=1;jettySize=auto;html=1;entryX=0.5;entryY=0;entryDx=0;entryDy=0;entryPerimeter=0;" edge="1" parent="1" source="3IBphvjYudPTPOBFQOcQ-2" target="3IBphvjYudPTPOBFQOcQ-3">
          <mxGeometry relative="1" as="geometry" />
        </mxCell>
        <UserObject label="&lt;div style=&quot;&quot;&gt;&lt;span style=&quot;font-size: 11.29px;&quot;&gt;Init Delay Driver&lt;/span&gt;&lt;/div&gt;" Function="EN_DIO_Error_T DIO_toggle(uint8_t pinNumber, EN_DIO_PORT_T portNumber);  " tags="Flowchart" id="3IBphvjYudPTPOBFQOcQ-2">
          <mxCell style="verticalAlign=middle;align=center;overflow=width;vsdxID=274;fillColor=#d5e8d4;shape=stencil(nZBLDoAgDERP0z3SIyjew0SURgSD+Lu9kMZoXLhwN9O+tukAlrNpJg1SzDH4QW/URgNYgZTkjA4UkwJUgGXng+6DX1zLfmoymdXo17xh5zmRJ6Q42BWCfc2oJfdAr+Yv+AP9Cb7OJ3H/2JG1HNGz/84klThPVCc=);strokeColor=#82b366;spacingTop=-1;spacingBottom=-1;spacingLeft=-1;spacingRight=-1;points=[[0,0.5,0],[1,0.5,0],[0.5,1,0],[0.5,0,0]];labelBackgroundColor=none;rounded=1;html=1;whiteSpace=wrap;fontFamily=Calibri;" vertex="1" parent="1">
            <mxGeometry x="-603" y="-947" width="98" height="30.65" as="geometry" />
          </mxCell>
        </UserObject>
        <mxCell id="3IBphvjYudPTPOBFQOcQ-9" style="edgeStyle=orthogonalEdgeStyle;rounded=0;orthogonalLoop=1;jettySize=auto;html=1;entryX=0.5;entryY=0;entryDx=0;entryDy=0;entryPerimeter=0;" edge="1" parent="1" source="3IBphvjYudPTPOBFQOcQ-3" target="3IBphvjYudPTPOBFQOcQ-4">
          <mxGeometry relative="1" as="geometry" />
        </mxCell>
        <UserObject label="&lt;div style=&quot;&quot;&gt;&lt;span style=&quot;font-size: 11.29px;&quot;&gt;Init DCM Driver&lt;/span&gt;&lt;/div&gt;" Function="EN_DIO_Error_T DIO_toggle(uint8_t pinNumber, EN_DIO_PORT_T portNumber);  " tags="Flowchart" id="3IBphvjYudPTPOBFQOcQ-3">
          <mxCell style="verticalAlign=middle;align=center;overflow=width;vsdxID=274;fillColor=#d5e8d4;shape=stencil(nZBLDoAgDERP0z3SIyjew0SURgSD+Lu9kMZoXLhwN9O+tukAlrNpJg1SzDH4QW/URgNYgZTkjA4UkwJUgGXng+6DX1zLfmoymdXo17xh5zmRJ6Q42BWCfc2oJfdAr+Yv+AP9Cb7OJ3H/2JG1HNGz/84klThPVCc=);strokeColor=#82b366;spacingTop=-1;spacingBottom=-1;spacingLeft=-1;spacingRight=-1;points=[[0,0.5,0],[1,0.5,0],[0.5,1,0],[0.5,0,0]];labelBackgroundColor=none;rounded=1;html=1;whiteSpace=wrap;fontFamily=Calibri;" vertex="1" parent="1">
            <mxGeometry x="-603" y="-894.85" width="98" height="30.65" as="geometry" />
          </mxCell>
        </UserObject>
        <mxCell id="3IBphvjYudPTPOBFQOcQ-17" style="edgeStyle=orthogonalEdgeStyle;rounded=0;orthogonalLoop=1;jettySize=auto;html=1;entryX=0.5;entryY=0;entryDx=0;entryDy=0;entryPerimeter=0;" edge="1" parent="1" source="3IBphvjYudPTPOBFQOcQ-4" target="3IBphvjYudPTPOBFQOcQ-5">
          <mxGeometry relative="1" as="geometry" />
        </mxCell>
        <UserObject label="&lt;div style=&quot;&quot;&gt;&lt;span style=&quot;font-size: 11.29px;&quot;&gt;Init LCD Driver&lt;/span&gt;&lt;/div&gt;" Function="EN_DIO_Error_T DIO_toggle(uint8_t pinNumber, EN_DIO_PORT_T portNumber);  " tags="Flowchart" id="3IBphvjYudPTPOBFQOcQ-4">
          <mxCell style="verticalAlign=middle;align=center;overflow=width;vsdxID=274;fillColor=#d5e8d4;shape=stencil(nZBLDoAgDERP0z3SIyjew0SURgSD+Lu9kMZoXLhwN9O+tukAlrNpJg1SzDH4QW/URgNYgZTkjA4UkwJUgGXng+6DX1zLfmoymdXo17xh5zmRJ6Q42BWCfc2oJfdAr+Yv+AP9Cb7OJ3H/2JG1HNGz/84klThPVCc=);strokeColor=#82b366;spacingTop=-1;spacingBottom=-1;spacingLeft=-1;spacingRight=-1;points=[[0,0.5,0],[1,0.5,0],[0.5,1,0],[0.5,0,0]];labelBackgroundColor=none;rounded=1;html=1;whiteSpace=wrap;fontFamily=Calibri;" vertex="1" parent="1">
            <mxGeometry x="-416" y="-1057.2" width="98" height="30.65" as="geometry" />
          </mxCell>
        </UserObject>
        <mxCell id="3IBphvjYudPTPOBFQOcQ-18" style="edgeStyle=orthogonalEdgeStyle;rounded=0;orthogonalLoop=1;jettySize=auto;html=1;entryX=0.5;entryY=0;entryDx=0;entryDy=0;entryPerimeter=0;" edge="1" parent="1" source="3IBphvjYudPTPOBFQOcQ-5" target="3IBphvjYudPTPOBFQOcQ-6">
          <mxGeometry relative="1" as="geometry" />
        </mxCell>
        <UserObject label="&lt;div style=&quot;&quot;&gt;&lt;span style=&quot;font-size: 11.29px;&quot;&gt;Init US Driver&lt;br&gt;&lt;i&gt;(ultrasonic)&lt;/i&gt;&lt;/span&gt;&lt;/div&gt;" Function="EN_DIO_Error_T DIO_toggle(uint8_t pinNumber, EN_DIO_PORT_T portNumber);  " tags="Flowchart" id="3IBphvjYudPTPOBFQOcQ-5">
          <mxCell style="verticalAlign=middle;align=center;overflow=width;vsdxID=274;fillColor=#d5e8d4;shape=stencil(nZBLDoAgDERP0z3SIyjew0SURgSD+Lu9kMZoXLhwN9O+tukAlrNpJg1SzDH4QW/URgNYgZTkjA4UkwJUgGXng+6DX1zLfmoymdXo17xh5zmRJ6Q42BWCfc2oJfdAr+Yv+AP9Cb7OJ3H/2JG1HNGz/84klThPVCc=);strokeColor=#82b366;spacingTop=-1;spacingBottom=-1;spacingLeft=-1;spacingRight=-1;points=[[0,0.5,0],[1,0.5,0],[0.5,1,0],[0.5,0,0]];labelBackgroundColor=none;rounded=1;html=1;whiteSpace=wrap;fontFamily=Calibri;" vertex="1" parent="1">
            <mxGeometry x="-416" y="-1002" width="98" height="30.65" as="geometry" />
          </mxCell>
        </UserObject>
        <mxCell id="3IBphvjYudPTPOBFQOcQ-19" style="edgeStyle=orthogonalEdgeStyle;rounded=0;orthogonalLoop=1;jettySize=auto;html=1;entryX=0.5;entryY=0;entryDx=0;entryDy=0;" edge="1" parent="1" source="3IBphvjYudPTPOBFQOcQ-6" target="3IBphvjYudPTPOBFQOcQ-8">
          <mxGeometry relative="1" as="geometry" />
        </mxCell>
        <UserObject label="&lt;div style=&quot;&quot;&gt;&lt;span style=&quot;font-size: 11.29px;&quot;&gt;Enable global interrupt&lt;/span&gt;&lt;/div&gt;" Function="EN_DIO_Error_T DIO_toggle(uint8_t pinNumber, EN_DIO_PORT_T portNumber);  " tags="Flowchart" id="3IBphvjYudPTPOBFQOcQ-6">
          <mxCell style="verticalAlign=middle;align=center;overflow=width;vsdxID=274;fillColor=#d5e8d4;shape=stencil(nZBLDoAgDERP0z3SIyjew0SURgSD+Lu9kMZoXLhwN9O+tukAlrNpJg1SzDH4QW/URgNYgZTkjA4UkwJUgGXng+6DX1zLfmoymdXo17xh5zmRJ6Q42BWCfc2oJfdAr+Yv+AP9Cb7OJ3H/2JG1HNGz/84klThPVCc=);strokeColor=#82b366;spacingTop=-1;spacingBottom=-1;spacingLeft=-1;spacingRight=-1;points=[[0,0.5,0],[1,0.5,0],[0.5,1,0],[0.5,0,0]];labelBackgroundColor=none;rounded=1;html=1;whiteSpace=wrap;fontFamily=Calibri;" vertex="1" parent="1">
            <mxGeometry x="-429" y="-946" width="124" height="30.65" as="geometry" />
          </mxCell>
        </UserObject>
        <mxCell id="3IBphvjYudPTPOBFQOcQ-20" style="edgeStyle=orthogonalEdgeStyle;rounded=0;orthogonalLoop=1;jettySize=auto;html=1;entryX=0.5;entryY=0;entryDx=0;entryDy=0;entryPerimeter=0;" edge="1" parent="1" source="3IBphvjYudPTPOBFQOcQ-8" target="lFIIQ00Y4gTMDogE_Xks-2">
          <mxGeometry relative="1" as="geometry" />
        </mxCell>
        <mxCell id="3IBphvjYudPTPOBFQOcQ-8" value="switchAppState&lt;br style=&quot;font-size: 12px;&quot;&gt;to `&lt;b&gt;&lt;i&gt;INITIAL&lt;/i&gt;&lt;/b&gt;`" style="shape=process;whiteSpace=wrap;html=1;backgroundOutline=1;fontSize=12;fillColor=#ffe6cc;strokeColor=#d79b00;fontFamily=Calibri;" vertex="1" parent="1">
          <mxGeometry x="-427" y="-891" width="120" height="32" as="geometry" />
        </mxCell>
        <mxCell id="3IBphvjYudPTPOBFQOcQ-25" style="edgeStyle=orthogonalEdgeStyle;rounded=0;orthogonalLoop=1;jettySize=auto;html=1;entryX=1.004;entryY=0.029;entryDx=0;entryDy=0;entryPerimeter=0;curved=1;dashed=1;" edge="1" parent="1" source="3IBphvjYudPTPOBFQOcQ-21" target="3IBphvjYudPTPOBFQOcQ-22">
          <mxGeometry relative="1" as="geometry" />
        </mxCell>
        <mxCell id="3IBphvjYudPTPOBFQOcQ-21" value="&amp;lt;last pref.dir&amp;gt;&lt;br&gt;last preferred direction or default (&quot;Right&quot;)" style="shape=note;whiteSpace=wrap;html=1;backgroundOutline=1;fontColor=#000000;darkOpacity=0.05;fillColor=#FFF9B2;strokeColor=none;fillStyle=solid;direction=west;gradientDirection=north;gradientColor=#FFF2A1;shadow=1;size=20;pointerEvents=1;opacity=80;" vertex="1" parent="1">
          <mxGeometry x="-313" y="-441.44999999999993" width="147.6" height="54.6" as="geometry" />
        </mxCell>
        <mxCell id="3IBphvjYudPTPOBFQOcQ-24" style="edgeStyle=orthogonalEdgeStyle;rounded=0;orthogonalLoop=1;jettySize=auto;html=1;" edge="1" parent="1" source="3IBphvjYudPTPOBFQOcQ-22">
          <mxGeometry relative="1" as="geometry">
            <mxPoint x="-266.79999999999995" y="-344.15" as="targetPoint" />
          </mxGeometry>
        </mxCell>
        <UserObject label="&lt;div style=&quot;font-size: 1px&quot;&gt;&lt;font style=&quot;font-size: 11.29px; direction: ltr; letter-spacing: 0px; line-height: 120%; opacity: 1;&quot;&gt;Print on LCD (∞):&lt;br&gt;Set Def. Rot.&lt;br&gt;&amp;lt;last pref. dir&amp;gt;&lt;/font&gt;&lt;/div&gt;" Function="EN_DIO_Error_T DIO_toggle(uint8_t pinNumber, EN_DIO_PORT_T portNumber);  " tags="Flowchart" id="3IBphvjYudPTPOBFQOcQ-22">
          <mxCell style="verticalAlign=middle;align=center;overflow=width;vsdxID=274;fillColor=#d5e8d4;shape=stencil(nZBLDoAgDERP0z3SIyjew0SURgSD+Lu9kMZoXLhwN9O+tukAlrNpJg1SzDH4QW/URgNYgZTkjA4UkwJUgGXng+6DX1zLfmoymdXo17xh5zmRJ6Q42BWCfc2oJfdAr+Yv+AP9Cb7OJ3H/2JG1HNGz/84klThPVCc=);strokeColor=#82b366;spacingTop=-1;spacingBottom=-1;spacingLeft=-1;spacingRight=-1;points=[[0,0.5,0],[1,0.5,0],[0.5,1,0],[0.5,0,0]];labelBackgroundColor=none;rounded=1;html=1;whiteSpace=wrap;fontFamily=Calibri;" vertex="1" parent="1">
            <mxGeometry x="-512.5" y="-368.65" width="141.5" height="49" as="geometry" />
          </mxCell>
        </UserObject>
        <mxCell id="3IBphvjYudPTPOBFQOcQ-113" value="True" style="text;html=1;strokeColor=none;fillColor=none;align=center;verticalAlign=middle;whiteSpace=wrap;rounded=0;fontSize=12;fontFamily=Calibri;" vertex="1" parent="1">
          <mxGeometry x="-574.4999999999999" y="-542.65" width="39" height="16" as="geometry" />
        </mxCell>
        <mxCell id="3IBphvjYudPTPOBFQOcQ-114" value="True" style="text;html=1;strokeColor=none;fillColor=none;align=center;verticalAlign=middle;whiteSpace=wrap;rounded=0;fontSize=12;fontFamily=Calibri;" vertex="1" parent="1">
          <mxGeometry x="-574.4999999999999" y="-431.65" width="39" height="16" as="geometry" />
        </mxCell>
        <mxCell id="3IBphvjYudPTPOBFQOcQ-115" value="True" style="text;html=1;strokeColor=none;fillColor=none;align=center;verticalAlign=middle;whiteSpace=wrap;rounded=0;fontSize=12;fontFamily=Calibri;" vertex="1" parent="1">
          <mxGeometry x="-570.2499999999999" y="-265.29999999999995" width="39" height="16" as="geometry" />
        </mxCell>
        <mxCell id="3IBphvjYudPTPOBFQOcQ-116" value="False" style="text;html=1;strokeColor=none;fillColor=none;align=center;verticalAlign=middle;whiteSpace=wrap;rounded=0;fontSize=12;fontFamily=Calibri;" vertex="1" parent="1">
          <mxGeometry x="-613.4999999999999" y="-201.79999999999993" width="39" height="16" as="geometry" />
        </mxCell>
        <mxCell id="3IBphvjYudPTPOBFQOcQ-117" value="False" style="text;html=1;strokeColor=none;fillColor=none;align=center;verticalAlign=middle;whiteSpace=wrap;rounded=0;fontSize=12;fontFamily=Calibri;" vertex="1" parent="1">
          <mxGeometry x="-615.9999999999999" y="-369.65" width="39" height="16" as="geometry" />
        </mxCell>
        <mxCell id="3IBphvjYudPTPOBFQOcQ-118" value="False" style="text;html=1;strokeColor=none;fillColor=none;align=center;verticalAlign=middle;whiteSpace=wrap;rounded=0;fontSize=12;fontFamily=Calibri;" vertex="1" parent="1">
          <mxGeometry x="-613.4999999999999" y="-482.65" width="39" height="16" as="geometry" />
        </mxCell>
        <mxCell id="3IBphvjYudPTPOBFQOcQ-123" style="edgeStyle=none;curved=1;rounded=0;orthogonalLoop=1;jettySize=auto;html=1;entryX=0;entryY=0.5;entryDx=0;entryDy=0;fontSize=12;startSize=8;endSize=8;" edge="1" source="3IBphvjYudPTPOBFQOcQ-125" parent="1" target="3IBphvjYudPTPOBFQOcQ-137">
          <mxGeometry relative="1" as="geometry">
            <mxPoint x="290.86999999999983" y="-857.65" as="targetPoint" />
          </mxGeometry>
        </mxCell>
        <mxCell id="3IBphvjYudPTPOBFQOcQ-124" style="edgeStyle=none;curved=1;rounded=0;orthogonalLoop=1;jettySize=auto;html=1;entryX=0.5;entryY=0;entryDx=0;entryDy=0;fontSize=12;startSize=8;endSize=8;" edge="1" source="3IBphvjYudPTPOBFQOcQ-125" target="3IBphvjYudPTPOBFQOcQ-128" parent="1">
          <mxGeometry relative="1" as="geometry" />
        </mxCell>
        <mxCell id="3IBphvjYudPTPOBFQOcQ-125" value="case `&lt;b&gt;&lt;i&gt;INITIAL&lt;/i&gt;&lt;/b&gt;`" style="rhombus;whiteSpace=wrap;html=1;fontSize=12;fontFamily=Calibri;fillColor=#fff2cc;strokeColor=#d6b656;" vertex="1" parent="1">
          <mxGeometry x="147.49999999999994" y="-897.65" width="80" height="80" as="geometry" />
        </mxCell>
        <mxCell id="3IBphvjYudPTPOBFQOcQ-126" style="edgeStyle=none;curved=1;rounded=0;orthogonalLoop=1;jettySize=auto;html=1;entryX=0;entryY=0.5;entryDx=0;entryDy=0;fontSize=12;startSize=8;endSize=8;" edge="1" source="3IBphvjYudPTPOBFQOcQ-128" parent="1" target="3IBphvjYudPTPOBFQOcQ-138">
          <mxGeometry relative="1" as="geometry">
            <mxPoint x="290.86999999999983" y="-737.65" as="targetPoint" />
          </mxGeometry>
        </mxCell>
        <mxCell id="3IBphvjYudPTPOBFQOcQ-149" style="edgeStyle=orthogonalEdgeStyle;rounded=0;orthogonalLoop=1;jettySize=auto;html=1;entryX=0.5;entryY=0;entryDx=0;entryDy=0;" edge="1" parent="1" source="3IBphvjYudPTPOBFQOcQ-128" target="3IBphvjYudPTPOBFQOcQ-143">
          <mxGeometry relative="1" as="geometry" />
        </mxCell>
        <mxCell id="3IBphvjYudPTPOBFQOcQ-128" value="case `&lt;b&gt;&lt;i&gt;SET_DIR&lt;/i&gt;&lt;/b&gt;`" style="rhombus;whiteSpace=wrap;html=1;fontSize=12;fontFamily=Calibri;fillColor=#fff2cc;strokeColor=#d6b656;" vertex="1" parent="1">
          <mxGeometry x="143.24999999999994" y="-782.65" width="88.5" height="89" as="geometry" />
        </mxCell>
        <mxCell id="3IBphvjYudPTPOBFQOcQ-129" style="edgeStyle=none;curved=1;rounded=0;orthogonalLoop=1;jettySize=auto;html=1;entryX=0;entryY=0.5;entryDx=0;entryDy=0;fontSize=12;startSize=8;endSize=8;" edge="1" source="3IBphvjYudPTPOBFQOcQ-130" parent="1" target="3IBphvjYudPTPOBFQOcQ-139">
          <mxGeometry relative="1" as="geometry">
            <mxPoint x="290.86999999999983" y="-493.79999999999995" as="targetPoint" />
          </mxGeometry>
        </mxCell>
        <mxCell id="3IBphvjYudPTPOBFQOcQ-152" style="edgeStyle=orthogonalEdgeStyle;rounded=0;orthogonalLoop=1;jettySize=auto;html=1;entryX=0.5;entryY=0;entryDx=0;entryDy=0;" edge="1" parent="1" source="3IBphvjYudPTPOBFQOcQ-130" target="3IBphvjYudPTPOBFQOcQ-151">
          <mxGeometry relative="1" as="geometry" />
        </mxCell>
        <mxCell id="3IBphvjYudPTPOBFQOcQ-130" value="case `&lt;b&gt;&lt;i&gt;RUNNING&lt;/i&gt;&lt;/b&gt;`" style="rhombus;whiteSpace=wrap;html=1;fontSize=12;fontFamily=Calibri;fillColor=#fff2cc;strokeColor=#d6b656;" vertex="1" parent="1">
          <mxGeometry x="147.49999999999994" y="-533.8" width="80" height="80" as="geometry" />
        </mxCell>
        <mxCell id="3IBphvjYudPTPOBFQOcQ-131" value="True" style="text;html=1;strokeColor=none;fillColor=none;align=center;verticalAlign=middle;whiteSpace=wrap;rounded=0;fontSize=12;fontFamily=Calibri;" vertex="1" parent="1">
          <mxGeometry x="228.36999999999995" y="-878.65" width="39" height="16" as="geometry" />
        </mxCell>
        <mxCell id="3IBphvjYudPTPOBFQOcQ-132" value="True" style="text;html=1;strokeColor=none;fillColor=none;align=center;verticalAlign=middle;whiteSpace=wrap;rounded=0;fontSize=12;fontFamily=Calibri;" vertex="1" parent="1">
          <mxGeometry x="228.36999999999995" y="-755.65" width="39" height="16" as="geometry" />
        </mxCell>
        <mxCell id="3IBphvjYudPTPOBFQOcQ-133" value="True" style="text;html=1;strokeColor=none;fillColor=none;align=center;verticalAlign=middle;whiteSpace=wrap;rounded=0;fontSize=12;fontFamily=Calibri;" vertex="1" parent="1">
          <mxGeometry x="232.61999999999995" y="-516.4499999999999" width="39" height="16" as="geometry" />
        </mxCell>
        <mxCell id="3IBphvjYudPTPOBFQOcQ-134" value="False" style="text;html=1;strokeColor=none;fillColor=none;align=center;verticalAlign=middle;whiteSpace=wrap;rounded=0;fontSize=12;fontFamily=Calibri;" vertex="1" parent="1">
          <mxGeometry x="198.99999999999994" y="-456.15" width="39" height="16" as="geometry" />
        </mxCell>
        <mxCell id="3IBphvjYudPTPOBFQOcQ-135" value="False" style="text;html=1;strokeColor=none;fillColor=none;align=center;verticalAlign=middle;whiteSpace=wrap;rounded=0;fontSize=12;fontFamily=Calibri;" vertex="1" parent="1">
          <mxGeometry x="190.23999999999995" y="-692.8" width="39" height="16" as="geometry" />
        </mxCell>
        <mxCell id="3IBphvjYudPTPOBFQOcQ-136" value="False" style="text;html=1;strokeColor=none;fillColor=none;align=center;verticalAlign=middle;whiteSpace=wrap;rounded=0;fontSize=12;fontFamily=Calibri;" vertex="1" parent="1">
          <mxGeometry x="189.36999999999995" y="-818.65" width="39" height="16" as="geometry" />
        </mxCell>
        <mxCell id="3IBphvjYudPTPOBFQOcQ-155" style="edgeStyle=orthogonalEdgeStyle;rounded=0;orthogonalLoop=1;jettySize=auto;html=1;entryX=1;entryY=0.5;entryDx=0;entryDy=0;" edge="1" parent="1" source="3IBphvjYudPTPOBFQOcQ-137" target="3IBphvjYudPTPOBFQOcQ-151">
          <mxGeometry relative="1" as="geometry">
            <mxPoint x="476" y="-427" as="targetPoint" />
            <Array as="points">
              <mxPoint x="429" y="-858" />
              <mxPoint x="429" y="-412" />
            </Array>
          </mxGeometry>
        </mxCell>
        <mxCell id="3IBphvjYudPTPOBFQOcQ-137" value="Initial Sub Process" style="shape=process;whiteSpace=wrap;html=1;backgroundOutline=1;fontSize=12;fillColor=#ffe6cc;strokeColor=#d79b00;fontFamily=Calibri;" vertex="1" parent="1">
          <mxGeometry x="272.99999999999994" y="-874" width="120" height="32" as="geometry" />
        </mxCell>
        <mxCell id="3IBphvjYudPTPOBFQOcQ-156" style="edgeStyle=orthogonalEdgeStyle;rounded=0;orthogonalLoop=1;jettySize=auto;html=1;" edge="1" parent="1" source="3IBphvjYudPTPOBFQOcQ-138">
          <mxGeometry relative="1" as="geometry">
            <mxPoint x="430.3333333333335" y="-738.1500000000001" as="targetPoint" />
          </mxGeometry>
        </mxCell>
        <mxCell id="3IBphvjYudPTPOBFQOcQ-138" value="Set Dir Sub Process" style="shape=process;whiteSpace=wrap;html=1;backgroundOutline=1;fontSize=12;fillColor=#ffe6cc;strokeColor=#d79b00;fontFamily=Calibri;" vertex="1" parent="1">
          <mxGeometry x="272.99999999999994" y="-754.15" width="120" height="32" as="geometry" />
        </mxCell>
        <mxCell id="3IBphvjYudPTPOBFQOcQ-158" style="edgeStyle=orthogonalEdgeStyle;rounded=0;orthogonalLoop=1;jettySize=auto;html=1;" edge="1" parent="1" source="3IBphvjYudPTPOBFQOcQ-139">
          <mxGeometry relative="1" as="geometry">
            <mxPoint x="428.3333333333335" y="-493.8000000000002" as="targetPoint" />
          </mxGeometry>
        </mxCell>
        <mxCell id="3IBphvjYudPTPOBFQOcQ-139" value="Running Sub Process" style="shape=process;whiteSpace=wrap;html=1;backgroundOutline=1;fontSize=12;fillColor=#ffe6cc;strokeColor=#d79b00;fontFamily=Calibri;" vertex="1" parent="1">
          <mxGeometry x="272.99999999999994" y="-509.79999999999995" width="120" height="32" as="geometry" />
        </mxCell>
        <mxCell id="3IBphvjYudPTPOBFQOcQ-142" style="edgeStyle=none;curved=1;rounded=0;orthogonalLoop=1;jettySize=auto;html=1;entryX=0;entryY=0.5;entryDx=0;entryDy=0;fontSize=12;startSize=8;endSize=8;" edge="1" source="3IBphvjYudPTPOBFQOcQ-143" target="3IBphvjYudPTPOBFQOcQ-146" parent="1">
          <mxGeometry relative="1" as="geometry">
            <mxPoint x="290.86999999999983" y="-616" as="targetPoint" />
          </mxGeometry>
        </mxCell>
        <mxCell id="3IBphvjYudPTPOBFQOcQ-148" style="edgeStyle=orthogonalEdgeStyle;rounded=0;orthogonalLoop=1;jettySize=auto;html=1;entryX=0.5;entryY=0;entryDx=0;entryDy=0;" edge="1" parent="1" source="3IBphvjYudPTPOBFQOcQ-143" target="3IBphvjYudPTPOBFQOcQ-130">
          <mxGeometry relative="1" as="geometry" />
        </mxCell>
        <mxCell id="3IBphvjYudPTPOBFQOcQ-143" value="case `&lt;b&gt;&lt;i&gt;STARTING&lt;/i&gt;&lt;/b&gt;`" style="rhombus;whiteSpace=wrap;html=1;fontSize=12;fontFamily=Calibri;fillColor=#fff2cc;strokeColor=#d6b656;" vertex="1" parent="1">
          <mxGeometry x="147.49999999999994" y="-656" width="80" height="80" as="geometry" />
        </mxCell>
        <mxCell id="3IBphvjYudPTPOBFQOcQ-144" value="True" style="text;html=1;strokeColor=none;fillColor=none;align=center;verticalAlign=middle;whiteSpace=wrap;rounded=0;fontSize=12;fontFamily=Calibri;" vertex="1" parent="1">
          <mxGeometry x="232.61999999999995" y="-638.65" width="39" height="16" as="geometry" />
        </mxCell>
        <mxCell id="3IBphvjYudPTPOBFQOcQ-145" value="False" style="text;html=1;strokeColor=none;fillColor=none;align=center;verticalAlign=middle;whiteSpace=wrap;rounded=0;fontSize=12;fontFamily=Calibri;" vertex="1" parent="1">
          <mxGeometry x="198.99999999999994" y="-578.3499999999999" width="39" height="16" as="geometry" />
        </mxCell>
        <mxCell id="3IBphvjYudPTPOBFQOcQ-157" style="edgeStyle=orthogonalEdgeStyle;rounded=0;orthogonalLoop=1;jettySize=auto;html=1;" edge="1" parent="1" source="3IBphvjYudPTPOBFQOcQ-146">
          <mxGeometry relative="1" as="geometry">
            <mxPoint x="429" y="-616" as="targetPoint" />
          </mxGeometry>
        </mxCell>
        <mxCell id="3IBphvjYudPTPOBFQOcQ-146" value="Starting Sub Process" style="shape=process;whiteSpace=wrap;html=1;backgroundOutline=1;fontSize=12;fillColor=#ffe6cc;strokeColor=#d79b00;fontFamily=Calibri;" vertex="1" parent="1">
          <mxGeometry x="272.99999999999994" y="-632" width="120" height="32" as="geometry" />
        </mxCell>
        <mxCell id="3IBphvjYudPTPOBFQOcQ-153" style="edgeStyle=orthogonalEdgeStyle;rounded=0;orthogonalLoop=1;jettySize=auto;html=1;entryX=0;entryY=0.5;entryDx=0;entryDy=0;entryPerimeter=0;" edge="1" parent="1" source="3IBphvjYudPTPOBFQOcQ-151" target="lFIIQ00Y4gTMDogE_Xks-105">
          <mxGeometry relative="1" as="geometry">
            <mxPoint x="67.99999999999994" y="-981" as="targetPoint" />
            <Array as="points">
              <mxPoint x="96.99999999999994" y="-412" />
              <mxPoint x="96.99999999999994" y="-944" />
            </Array>
          </mxGeometry>
        </mxCell>
        <mxCell id="3IBphvjYudPTPOBFQOcQ-151" value="" style="rhombus;whiteSpace=wrap;html=1;" vertex="1" parent="1">
          <mxGeometry x="176.49999999999994" y="-423.15" width="22" height="22" as="geometry" />
        </mxCell>
        <mxCell id="3IBphvjYudPTPOBFQOcQ-154" value="&lt;i&gt;While(true)&lt;br&gt;loop back&lt;/i&gt;" style="text;html=1;strokeColor=none;fillColor=none;align=center;verticalAlign=middle;whiteSpace=wrap;rounded=0;fontSize=12;fontFamily=Calibri;" vertex="1" parent="1">
          <mxGeometry x="152.49999999999994" y="-394" width="70" height="27" as="geometry" />
        </mxCell>
        <mxCell id="3IBphvjYudPTPOBFQOcQ-159" value="&lt;font style=&quot;font-size: 14px;&quot;&gt;Initial Sub Process&lt;/font&gt;" style="swimlane;whiteSpace=wrap;html=1;rounded=1;fontSize=16;fontFamily=Calibri;fillColor=#ffe6cc;strokeColor=#d79b00;" vertex="1" parent="1">
          <mxGeometry x="853" y="-1137.65" width="291" height="284" as="geometry">
            <mxRectangle x="-207" y="152.5" width="134" height="31" as="alternateBounds" />
          </mxGeometry>
        </mxCell>
        <mxCell id="3IBphvjYudPTPOBFQOcQ-178" style="edgeStyle=orthogonalEdgeStyle;rounded=0;orthogonalLoop=1;jettySize=auto;html=1;entryX=0.5;entryY=0;entryDx=0;entryDy=0;" edge="1" parent="3IBphvjYudPTPOBFQOcQ-159" source="3IBphvjYudPTPOBFQOcQ-176" target="3IBphvjYudPTPOBFQOcQ-177">
          <mxGeometry relative="1" as="geometry" />
        </mxCell>
        <UserObject label="&lt;div style=&quot;font-size: 1px&quot;&gt;&lt;font style=&quot;font-size: 11.29px; direction: ltr; letter-spacing: 0px; line-height: 120%; opacity: 1;&quot;&gt;Start&lt;br&gt;&lt;/font&gt;&lt;/div&gt;" Function="EN_DIO_Error_T DIO_write(uint8_t pinNumber, EN_DIO_PORT_T portNumber, uint8_t value); " tags="Flowchart" id="3IBphvjYudPTPOBFQOcQ-176">
          <mxCell style="verticalAlign=middle;align=center;overflow=width;vsdxID=152;fillColor=#dae8fc;shape=stencil(tVLREoIgEPwaHnEQxsl3s/9gEpSJwDko7e+DsEkze2l627vdu5uFRaxyHe8FosR5sCcxqMZ3iO0Rpcp0ApQPCLEasUpaEC3Yi2lS3fOojOhsr3HDmObyMtsVcYqS29Qh5FEfklwrM5OXeUa/yjkcAwfr7TDpiyTfXvjkMR+Vw2A998qaBac5tAKHU1hq3i4oNwjRr9ofvayt/+Rk+yX/4iWA159KpXWKxJx/z0Bopfyw+g4=);strokeColor=#6c8ebf;spacingTop=-1;spacingBottom=-1;spacingLeft=-1;spacingRight=-1;points=[[0.5,1,0],[0.5,0,0],[0,0.5,0],[1,0.5,0]];labelBackgroundColor=none;rounded=1;html=1;whiteSpace=wrap;fontFamily=Calibri;" vertex="1" parent="3IBphvjYudPTPOBFQOcQ-159">
            <mxGeometry x="29.003824451410537" y="39.15000000000009" width="86.75235109717869" height="38" as="geometry" />
          </mxCell>
        </UserObject>
        <mxCell id="3IBphvjYudPTPOBFQOcQ-184" style="edgeStyle=orthogonalEdgeStyle;rounded=0;orthogonalLoop=1;jettySize=auto;html=1;entryX=0;entryY=0.5;entryDx=0;entryDy=0;" edge="1" parent="3IBphvjYudPTPOBFQOcQ-159" source="3IBphvjYudPTPOBFQOcQ-177" target="3IBphvjYudPTPOBFQOcQ-183">
          <mxGeometry relative="1" as="geometry" />
        </mxCell>
        <mxCell id="3IBphvjYudPTPOBFQOcQ-185" value="" style="edgeStyle=orthogonalEdgeStyle;rounded=0;orthogonalLoop=1;jettySize=auto;html=1;" edge="1" parent="3IBphvjYudPTPOBFQOcQ-159" source="3IBphvjYudPTPOBFQOcQ-177" target="3IBphvjYudPTPOBFQOcQ-181">
          <mxGeometry relative="1" as="geometry" />
        </mxCell>
        <mxCell id="3IBphvjYudPTPOBFQOcQ-177" value="`&lt;b&gt;&lt;i&gt;START&lt;/i&gt;&lt;/b&gt;` is&lt;br&gt;pressed?" style="rhombus;whiteSpace=wrap;html=1;fontSize=12;fontFamily=Calibri;fillColor=#fff2cc;strokeColor=#d6b656;" vertex="1" parent="3IBphvjYudPTPOBFQOcQ-159">
          <mxGeometry x="32.37999999999999" y="105.00000000000004" width="80" height="80" as="geometry" />
        </mxCell>
        <mxCell id="3IBphvjYudPTPOBFQOcQ-180" value="False" style="text;html=1;strokeColor=none;fillColor=none;align=center;verticalAlign=middle;whiteSpace=wrap;rounded=0;fontSize=12;fontFamily=Calibri;" vertex="1" parent="3IBphvjYudPTPOBFQOcQ-159">
          <mxGeometry x="24" y="191" width="39" height="16" as="geometry" />
        </mxCell>
        <mxCell id="3IBphvjYudPTPOBFQOcQ-179" value="True" style="text;html=1;strokeColor=none;fillColor=none;align=center;verticalAlign=middle;whiteSpace=wrap;rounded=0;fontSize=12;fontFamily=Calibri;" vertex="1" parent="3IBphvjYudPTPOBFQOcQ-159">
          <mxGeometry x="118" y="118" width="39" height="16" as="geometry" />
        </mxCell>
        <UserObject label="&lt;div style=&quot;font-size: 1px&quot;&gt;&lt;font style=&quot;font-size: 11.29px; direction: ltr; letter-spacing: 0px; line-height: 120%; opacity: 1;&quot;&gt;End&lt;br&gt;&lt;/font&gt;&lt;/div&gt;" Function="EN_DIO_Error_T DIO_write(uint8_t pinNumber, EN_DIO_PORT_T portNumber, uint8_t value); " tags="Flowchart" id="3IBphvjYudPTPOBFQOcQ-181">
          <mxCell style="verticalAlign=middle;align=center;overflow=width;vsdxID=152;fillColor=#dae8fc;shape=stencil(tVLREoIgEPwaHnEQxsl3s/9gEpSJwDko7e+DsEkze2l627vdu5uFRaxyHe8FosR5sCcxqMZ3iO0Rpcp0ApQPCLEasUpaEC3Yi2lS3fOojOhsr3HDmObyMtsVcYqS29Qh5FEfklwrM5OXeUa/yjkcAwfr7TDpiyTfXvjkMR+Vw2A998qaBac5tAKHU1hq3i4oNwjRr9ofvayt/+Rk+yX/4iWA159KpXWKxJx/z0Bopfyw+g4=);strokeColor=#6c8ebf;spacingTop=-1;spacingBottom=-1;spacingLeft=-1;spacingRight=-1;points=[[0.5,1,0],[0.5,0,0],[0,0.5,0],[1,0.5,0]];labelBackgroundColor=none;rounded=1;html=1;whiteSpace=wrap;fontFamily=Calibri;" vertex="1" parent="3IBphvjYudPTPOBFQOcQ-159">
            <mxGeometry x="29.003824451410537" y="229.0000000000001" width="86.75235109717869" height="38" as="geometry" />
          </mxCell>
        </UserObject>
        <mxCell id="3IBphvjYudPTPOBFQOcQ-186" style="edgeStyle=orthogonalEdgeStyle;rounded=0;orthogonalLoop=1;jettySize=auto;html=1;entryX=1;entryY=0.5;entryDx=0;entryDy=0;entryPerimeter=0;exitX=0.5;exitY=1;exitDx=0;exitDy=0;" edge="1" parent="3IBphvjYudPTPOBFQOcQ-159" source="3IBphvjYudPTPOBFQOcQ-183" target="3IBphvjYudPTPOBFQOcQ-181">
          <mxGeometry relative="1" as="geometry" />
        </mxCell>
        <mxCell id="3IBphvjYudPTPOBFQOcQ-183" value="switchAppState&lt;br style=&quot;font-size: 12px;&quot;&gt;to `&lt;b&gt;&lt;i&gt;SET_DIR&lt;/i&gt;&lt;/b&gt;`" style="shape=process;whiteSpace=wrap;html=1;backgroundOutline=1;fontSize=12;fillColor=#ffe6cc;strokeColor=#d79b00;fontFamily=Calibri;" vertex="1" parent="3IBphvjYudPTPOBFQOcQ-159">
          <mxGeometry x="152" y="129" width="120" height="32" as="geometry" />
        </mxCell>
        <mxCell id="3IBphvjYudPTPOBFQOcQ-187" value="&lt;span style=&quot;font-size: 14px;&quot;&gt;Set Direction Sub Process&lt;/span&gt;" style="swimlane;whiteSpace=wrap;html=1;rounded=1;fontSize=16;fontFamily=Calibri;fillColor=#ffe6cc;strokeColor=#d79b00;" vertex="1" parent="1">
          <mxGeometry x="853" y="-782.65" width="547" height="583" as="geometry">
            <mxRectangle x="-207" y="152.5" width="134" height="31" as="alternateBounds" />
          </mxGeometry>
        </mxCell>
        <mxCell id="3IBphvjYudPTPOBFQOcQ-213" style="edgeStyle=orthogonalEdgeStyle;rounded=0;orthogonalLoop=1;jettySize=auto;html=1;entryX=0.5;entryY=0;entryDx=0;entryDy=0;entryPerimeter=0;" edge="1" parent="3IBphvjYudPTPOBFQOcQ-187" source="3IBphvjYudPTPOBFQOcQ-189" target="3IBphvjYudPTPOBFQOcQ-211">
          <mxGeometry relative="1" as="geometry" />
        </mxCell>
        <UserObject label="&lt;div style=&quot;font-size: 1px&quot;&gt;&lt;font style=&quot;font-size: 11.29px; direction: ltr; letter-spacing: 0px; line-height: 120%; opacity: 1;&quot;&gt;Start&lt;br&gt;&lt;/font&gt;&lt;/div&gt;" Function="EN_DIO_Error_T DIO_write(uint8_t pinNumber, EN_DIO_PORT_T portNumber, uint8_t value); " tags="Flowchart" id="3IBphvjYudPTPOBFQOcQ-189">
          <mxCell style="verticalAlign=middle;align=center;overflow=width;vsdxID=152;fillColor=#dae8fc;shape=stencil(tVLREoIgEPwaHnEQxsl3s/9gEpSJwDko7e+DsEkze2l627vdu5uFRaxyHe8FosR5sCcxqMZ3iO0Rpcp0ApQPCLEasUpaEC3Yi2lS3fOojOhsr3HDmObyMtsVcYqS29Qh5FEfklwrM5OXeUa/yjkcAwfr7TDpiyTfXvjkMR+Vw2A998qaBac5tAKHU1hq3i4oNwjRr9ofvayt/+Rk+yX/4iWA159KpXWKxJx/z0Bopfyw+g4=);strokeColor=#6c8ebf;spacingTop=-1;spacingBottom=-1;spacingLeft=-1;spacingRight=-1;points=[[0.5,1,0],[0.5,0,0],[0,0.5,0],[1,0.5,0]];labelBackgroundColor=none;rounded=1;html=1;whiteSpace=wrap;fontFamily=Calibri;" vertex="1" parent="3IBphvjYudPTPOBFQOcQ-187">
            <mxGeometry x="126.62382445141054" y="42.00000000000009" width="86.75235109717869" height="38" as="geometry" />
          </mxCell>
        </UserObject>
        <mxCell id="3IBphvjYudPTPOBFQOcQ-260" style="edgeStyle=orthogonalEdgeStyle;rounded=0;orthogonalLoop=1;jettySize=auto;html=1;entryX=0.5;entryY=0;entryDx=0;entryDy=0;entryPerimeter=0;" edge="1" parent="3IBphvjYudPTPOBFQOcQ-187" source="3IBphvjYudPTPOBFQOcQ-197" target="3IBphvjYudPTPOBFQOcQ-259">
          <mxGeometry relative="1" as="geometry" />
        </mxCell>
        <mxCell id="3IBphvjYudPTPOBFQOcQ-197" value="switchAppState&lt;br style=&quot;font-size: 12px;&quot;&gt;to `&lt;b&gt;&lt;i&gt;STARTING&lt;/i&gt;&lt;/b&gt;`" style="shape=process;whiteSpace=wrap;html=1;backgroundOutline=1;fontSize=12;fillColor=#ffe6cc;strokeColor=#d79b00;fontFamily=Calibri;" vertex="1" parent="3IBphvjYudPTPOBFQOcQ-187">
          <mxGeometry x="335" y="455" width="120" height="32" as="geometry" />
        </mxCell>
        <mxCell id="3IBphvjYudPTPOBFQOcQ-224" style="edgeStyle=orthogonalEdgeStyle;rounded=0;orthogonalLoop=1;jettySize=auto;html=1;entryX=0.5;entryY=0;entryDx=0;entryDy=0;" edge="1" parent="3IBphvjYudPTPOBFQOcQ-187" source="3IBphvjYudPTPOBFQOcQ-210" target="3IBphvjYudPTPOBFQOcQ-223">
          <mxGeometry relative="1" as="geometry" />
        </mxCell>
        <mxCell id="3IBphvjYudPTPOBFQOcQ-210" value="Stop Btn Check" style="shape=process;whiteSpace=wrap;html=1;backgroundOutline=1;fontSize=12;fillColor=#ffe6cc;strokeColor=#d79b00;fontFamily=Calibri;" vertex="1" parent="3IBphvjYudPTPOBFQOcQ-187">
          <mxGeometry x="110" y="261.85" width="120" height="32" as="geometry" />
        </mxCell>
        <mxCell id="3IBphvjYudPTPOBFQOcQ-214" value="" style="edgeStyle=orthogonalEdgeStyle;rounded=0;orthogonalLoop=1;jettySize=auto;html=1;" edge="1" parent="3IBphvjYudPTPOBFQOcQ-187" source="3IBphvjYudPTPOBFQOcQ-211" target="3IBphvjYudPTPOBFQOcQ-212">
          <mxGeometry relative="1" as="geometry" />
        </mxCell>
        <UserObject label="&lt;div style=&quot;font-size: 1px&quot;&gt;&lt;font style=&quot;font-size: 11.29px; direction: ltr; letter-spacing: 0px; line-height: 120%; opacity: 1;&quot;&gt;Init 5 seconds async delay&lt;/font&gt;&lt;/div&gt;" Function="EN_DIO_Error_T DIO_port_write(EN_DIO_PORT_T portNumber, uint8_t byte, uint8_t mask)" tags="Flowchart" id="3IBphvjYudPTPOBFQOcQ-211">
          <mxCell style="verticalAlign=middle;align=center;overflow=width;vsdxID=309;fillColor=#d5e8d4;shape=stencil(nZBLDoAgDERP0z3SIyjew0SURgSD+Lu9kMZoXLhwN9O+tukAlrNpJg1SzDH4QW/URgNYgZTkjA4UkwJUgGXng+6DX1zLfmoymdXo17xh5zmRJ6Q42BWCfc2oJfdAr+Yv+AP9Cb7OJ3H/2JG1HNGz/84klThPVCc=);strokeColor=#82b366;spacingTop=-1;spacingBottom=-1;spacingLeft=-1;spacingRight=-1;points=[[0,0.5,0],[1,0.5,0],[0.5,1,0],[0.5,0,0]];labelBackgroundColor=none;rounded=1;html=1;whiteSpace=wrap;fontFamily=Calibri;" vertex="1" parent="3IBphvjYudPTPOBFQOcQ-187">
            <mxGeometry x="105" y="104.85" width="130" height="29" as="geometry" />
          </mxCell>
        </UserObject>
        <mxCell id="3IBphvjYudPTPOBFQOcQ-217" value="" style="edgeStyle=orthogonalEdgeStyle;rounded=0;orthogonalLoop=1;jettySize=auto;html=1;" edge="1" parent="3IBphvjYudPTPOBFQOcQ-187" source="3IBphvjYudPTPOBFQOcQ-212" target="3IBphvjYudPTPOBFQOcQ-210">
          <mxGeometry relative="1" as="geometry" />
        </mxCell>
        <mxCell id="3IBphvjYudPTPOBFQOcQ-219" style="edgeStyle=orthogonalEdgeStyle;rounded=0;orthogonalLoop=1;jettySize=auto;html=1;entryX=0.5;entryY=0;entryDx=0;entryDy=0;" edge="1" parent="3IBphvjYudPTPOBFQOcQ-187" source="3IBphvjYudPTPOBFQOcQ-212" target="3IBphvjYudPTPOBFQOcQ-253">
          <mxGeometry relative="1" as="geometry">
            <mxPoint x="402" y="402" as="targetPoint" />
          </mxGeometry>
        </mxCell>
        <mxCell id="3IBphvjYudPTPOBFQOcQ-212" value="&lt;b&gt;&lt;i&gt;(flag)&lt;br&gt;delay done?&lt;br&gt;&lt;/i&gt;&lt;/b&gt;" style="rhombus;whiteSpace=wrap;html=1;fontSize=12;fontFamily=Calibri;fillColor=#fff2cc;strokeColor=#d6b656;" vertex="1" parent="3IBphvjYudPTPOBFQOcQ-187">
          <mxGeometry x="130" y="158.85000000000005" width="80" height="80" as="geometry" />
        </mxCell>
        <mxCell id="3IBphvjYudPTPOBFQOcQ-215" value="False" style="text;html=1;strokeColor=none;fillColor=none;align=center;verticalAlign=middle;whiteSpace=wrap;rounded=0;fontSize=12;fontFamily=Calibri;" vertex="1" parent="3IBphvjYudPTPOBFQOcQ-187">
          <mxGeometry x="120.62" y="234.85" width="39" height="16" as="geometry" />
        </mxCell>
        <mxCell id="3IBphvjYudPTPOBFQOcQ-218" value="True" style="text;html=1;strokeColor=none;fillColor=none;align=center;verticalAlign=middle;whiteSpace=wrap;rounded=0;fontSize=12;fontFamily=Calibri;" vertex="1" parent="3IBphvjYudPTPOBFQOcQ-187">
          <mxGeometry x="220.62" y="178.85" width="39" height="16" as="geometry" />
        </mxCell>
        <mxCell id="3IBphvjYudPTPOBFQOcQ-245" style="edgeStyle=orthogonalEdgeStyle;rounded=0;orthogonalLoop=1;jettySize=auto;html=1;entryX=0.5;entryY=0;entryDx=0;entryDy=0;entryPerimeter=0;" edge="1" parent="3IBphvjYudPTPOBFQOcQ-187" source="3IBphvjYudPTPOBFQOcQ-223" target="3IBphvjYudPTPOBFQOcQ-225">
          <mxGeometry relative="1" as="geometry" />
        </mxCell>
        <mxCell id="3IBphvjYudPTPOBFQOcQ-249" style="edgeStyle=orthogonalEdgeStyle;rounded=0;orthogonalLoop=1;jettySize=auto;html=1;" edge="1" parent="3IBphvjYudPTPOBFQOcQ-187" source="3IBphvjYudPTPOBFQOcQ-223">
          <mxGeometry relative="1" as="geometry">
            <mxPoint x="78.59999999999991" y="353" as="targetPoint" />
          </mxGeometry>
        </mxCell>
        <mxCell id="3IBphvjYudPTPOBFQOcQ-223" value="`&lt;b&gt;&lt;i&gt;Toggle&lt;/i&gt;&lt;/b&gt;`&lt;br&gt;(btn0) is&lt;br&gt;pressed?" style="rhombus;whiteSpace=wrap;html=1;fontSize=12;fontFamily=Calibri;fillColor=#fff2cc;strokeColor=#d6b656;" vertex="1" parent="3IBphvjYudPTPOBFQOcQ-187">
          <mxGeometry x="130" y="312.9999999999999" width="80" height="80" as="geometry" />
        </mxCell>
        <mxCell id="3IBphvjYudPTPOBFQOcQ-246" style="edgeStyle=orthogonalEdgeStyle;rounded=0;orthogonalLoop=1;jettySize=auto;html=1;entryX=0.5;entryY=0;entryDx=0;entryDy=0;entryPerimeter=0;" edge="1" parent="3IBphvjYudPTPOBFQOcQ-187" source="3IBphvjYudPTPOBFQOcQ-225" target="3IBphvjYudPTPOBFQOcQ-243">
          <mxGeometry relative="1" as="geometry" />
        </mxCell>
        <UserObject label="&lt;div style=&quot;&quot;&gt;&lt;span style=&quot;font-size: 11.29px;&quot;&gt;Toggle Default Direction&lt;br&gt;Right &amp;lt;-&amp;gt; Left&lt;/span&gt;&lt;/div&gt;" Function="EN_DIO_Error_T DIO_port_write(EN_DIO_PORT_T portNumber, uint8_t byte, uint8_t mask)" tags="Flowchart" id="3IBphvjYudPTPOBFQOcQ-225">
          <mxCell style="verticalAlign=middle;align=center;overflow=width;vsdxID=309;fillColor=#d5e8d4;shape=stencil(nZBLDoAgDERP0z3SIyjew0SURgSD+Lu9kMZoXLhwN9O+tukAlrNpJg1SzDH4QW/URgNYgZTkjA4UkwJUgGXng+6DX1zLfmoymdXo17xh5zmRJ6Q42BWCfc2oJfdAr+Yv+AP9Cb7OJ3H/2JG1HNGz/84klThPVCc=);strokeColor=#82b366;spacingTop=-1;spacingBottom=-1;spacingLeft=-1;spacingRight=-1;points=[[0,0.5,0],[1,0.5,0],[0.5,1,0],[0.5,0,0]];labelBackgroundColor=none;rounded=1;html=1;whiteSpace=wrap;fontFamily=Calibri;" vertex="1" parent="3IBphvjYudPTPOBFQOcQ-187">
            <mxGeometry x="110" y="420" width="120" height="29" as="geometry" />
          </mxCell>
        </UserObject>
        <mxCell id="3IBphvjYudPTPOBFQOcQ-247" style="edgeStyle=orthogonalEdgeStyle;rounded=0;orthogonalLoop=1;jettySize=auto;html=1;entryX=0;entryY=0.5;entryDx=0;entryDy=0;exitX=0.5;exitY=1;exitDx=0;exitDy=0;exitPerimeter=0;" edge="1" parent="3IBphvjYudPTPOBFQOcQ-187" source="3IBphvjYudPTPOBFQOcQ-243" target="3IBphvjYudPTPOBFQOcQ-212">
          <mxGeometry relative="1" as="geometry">
            <Array as="points">
              <mxPoint x="170" y="524" />
              <mxPoint x="78" y="524" />
              <mxPoint x="78" y="199" />
            </Array>
          </mxGeometry>
        </mxCell>
        <UserObject label="&lt;div style=&quot;&quot;&gt;&lt;span style=&quot;font-size: 11.29px;&quot;&gt;Update LCD Line 2&lt;br&gt;with new Direction&lt;/span&gt;&lt;/div&gt;" Function="EN_DIO_Error_T DIO_port_write(EN_DIO_PORT_T portNumber, uint8_t byte, uint8_t mask)" tags="Flowchart" id="3IBphvjYudPTPOBFQOcQ-243">
          <mxCell style="verticalAlign=middle;align=center;overflow=width;vsdxID=309;fillColor=#d5e8d4;shape=stencil(nZBLDoAgDERP0z3SIyjew0SURgSD+Lu9kMZoXLhwN9O+tukAlrNpJg1SzDH4QW/URgNYgZTkjA4UkwJUgGXng+6DX1zLfmoymdXo17xh5zmRJ6Q42BWCfc2oJfdAr+Yv+AP9Cb7OJ3H/2JG1HNGz/84klThPVCc=);strokeColor=#82b366;spacingTop=-1;spacingBottom=-1;spacingLeft=-1;spacingRight=-1;points=[[0,0.5,0],[1,0.5,0],[0.5,1,0],[0.5,0,0]];labelBackgroundColor=none;rounded=1;html=1;whiteSpace=wrap;fontFamily=Calibri;" vertex="1" parent="3IBphvjYudPTPOBFQOcQ-187">
            <mxGeometry x="110" y="475" width="120" height="29" as="geometry" />
          </mxCell>
        </UserObject>
        <mxCell id="3IBphvjYudPTPOBFQOcQ-248" value="True" style="text;html=1;strokeColor=none;fillColor=none;align=center;verticalAlign=middle;whiteSpace=wrap;rounded=0;fontSize=12;fontFamily=Calibri;" vertex="1" parent="3IBphvjYudPTPOBFQOcQ-187">
          <mxGeometry x="174.38" y="393" width="39" height="16" as="geometry" />
        </mxCell>
        <mxCell id="3IBphvjYudPTPOBFQOcQ-250" value="False" style="text;html=1;strokeColor=none;fillColor=none;align=center;verticalAlign=middle;whiteSpace=wrap;rounded=0;fontSize=12;fontFamily=Calibri;" vertex="1" parent="3IBphvjYudPTPOBFQOcQ-187">
          <mxGeometry x="93" y="337" width="39" height="16" as="geometry" />
        </mxCell>
        <mxCell id="3IBphvjYudPTPOBFQOcQ-252" style="edgeStyle=orthogonalEdgeStyle;rounded=0;orthogonalLoop=1;jettySize=auto;html=1;exitX=0;exitY=0;exitDx=101;exitDy=20;exitPerimeter=0;entryX=0.783;entryY=0.005;entryDx=0;entryDy=0;entryPerimeter=0;curved=1;dashed=1;" edge="1" parent="3IBphvjYudPTPOBFQOcQ-187" source="3IBphvjYudPTPOBFQOcQ-251" target="3IBphvjYudPTPOBFQOcQ-210">
          <mxGeometry relative="1" as="geometry" />
        </mxCell>
        <mxCell id="3IBphvjYudPTPOBFQOcQ-251" value="&lt;font style=&quot;font-size: 10px;&quot;&gt;Breaks timeout loop internally if pressed&lt;/font&gt;" style="shape=note;whiteSpace=wrap;html=1;backgroundOutline=1;fontColor=#000000;darkOpacity=0.05;fillColor=#FFF9B2;strokeColor=none;fillStyle=solid;direction=west;gradientDirection=north;gradientColor=#FFF2A1;shadow=1;size=20;pointerEvents=1;opacity=80;" vertex="1" parent="3IBphvjYudPTPOBFQOcQ-187">
          <mxGeometry x="233" y="234.85" width="101" height="33.85" as="geometry" />
        </mxCell>
        <mxCell id="3IBphvjYudPTPOBFQOcQ-261" style="edgeStyle=orthogonalEdgeStyle;rounded=0;orthogonalLoop=1;jettySize=auto;html=1;entryX=1;entryY=0.5;entryDx=0;entryDy=0;entryPerimeter=0;exitX=1;exitY=0.5;exitDx=0;exitDy=0;" edge="1" parent="3IBphvjYudPTPOBFQOcQ-187" source="3IBphvjYudPTPOBFQOcQ-253" target="3IBphvjYudPTPOBFQOcQ-259">
          <mxGeometry relative="1" as="geometry">
            <Array as="points">
              <mxPoint x="476" y="326" />
              <mxPoint x="476" y="531" />
            </Array>
          </mxGeometry>
        </mxCell>
        <mxCell id="3IBphvjYudPTPOBFQOcQ-306" style="edgeStyle=orthogonalEdgeStyle;rounded=0;orthogonalLoop=1;jettySize=auto;html=1;entryX=0.5;entryY=0;entryDx=0;entryDy=0;entryPerimeter=0;" edge="1" parent="3IBphvjYudPTPOBFQOcQ-187" source="3IBphvjYudPTPOBFQOcQ-253" target="3IBphvjYudPTPOBFQOcQ-305">
          <mxGeometry relative="1" as="geometry" />
        </mxCell>
        <mxCell id="3IBphvjYudPTPOBFQOcQ-253" value="&lt;b&gt;&lt;i&gt;state is&lt;br&gt;&#39;SET_DIR&#39;&lt;br&gt;&lt;/i&gt;&lt;/b&gt;" style="rhombus;whiteSpace=wrap;html=1;fontSize=12;fontFamily=Calibri;fillColor=#fff2cc;strokeColor=#d6b656;" vertex="1" parent="3IBphvjYudPTPOBFQOcQ-187">
          <mxGeometry x="355" y="286.00000000000006" width="80" height="80" as="geometry" />
        </mxCell>
        <mxCell id="3IBphvjYudPTPOBFQOcQ-254" value="&lt;span style=&quot;font-size: 10px;&quot;&gt;checks if state isn&#39;t changed by stop button sub-process&lt;/span&gt;" style="shape=note;whiteSpace=wrap;html=1;backgroundOutline=1;fontColor=#000000;darkOpacity=0.05;fillColor=#FFF9B2;strokeColor=none;fillStyle=solid;direction=west;gradientDirection=north;gradientColor=#FFF2A1;shadow=1;size=20;pointerEvents=1;opacity=80;" vertex="1" parent="3IBphvjYudPTPOBFQOcQ-187">
          <mxGeometry x="408" y="254" width="115" height="54" as="geometry" />
        </mxCell>
        <mxCell id="3IBphvjYudPTPOBFQOcQ-256" value="False" style="text;html=1;strokeColor=none;fillColor=none;align=center;verticalAlign=middle;whiteSpace=wrap;rounded=0;fontSize=12;fontFamily=Calibri;" vertex="1" parent="3IBphvjYudPTPOBFQOcQ-187">
          <mxGeometry x="478" y="332" width="39" height="16" as="geometry" />
        </mxCell>
        <mxCell id="3IBphvjYudPTPOBFQOcQ-257" value="True" style="text;html=1;strokeColor=none;fillColor=none;align=center;verticalAlign=middle;whiteSpace=wrap;rounded=0;fontSize=12;fontFamily=Calibri;" vertex="1" parent="3IBphvjYudPTPOBFQOcQ-187">
          <mxGeometry x="348" y="369" width="39" height="16" as="geometry" />
        </mxCell>
        <UserObject label="&lt;div style=&quot;font-size: 1px&quot;&gt;&lt;font style=&quot;font-size: 11.29px; direction: ltr; letter-spacing: 0px; line-height: 120%; opacity: 1;&quot;&gt;End&lt;br&gt;&lt;/font&gt;&lt;/div&gt;" Function="EN_DIO_Error_T DIO_write(uint8_t pinNumber, EN_DIO_PORT_T portNumber, uint8_t value); " tags="Flowchart" id="3IBphvjYudPTPOBFQOcQ-259">
          <mxCell style="verticalAlign=middle;align=center;overflow=width;vsdxID=152;fillColor=#dae8fc;shape=stencil(tVLREoIgEPwaHnEQxsl3s/9gEpSJwDko7e+DsEkze2l627vdu5uFRaxyHe8FosR5sCcxqMZ3iO0Rpcp0ApQPCLEasUpaEC3Yi2lS3fOojOhsr3HDmObyMtsVcYqS29Qh5FEfklwrM5OXeUa/yjkcAwfr7TDpiyTfXvjkMR+Vw2A998qaBac5tAKHU1hq3i4oNwjRr9ofvayt/+Rk+yX/4iWA159KpXWKxJx/z0Bopfyw+g4=);strokeColor=#6c8ebf;spacingTop=-1;spacingBottom=-1;spacingLeft=-1;spacingRight=-1;points=[[0.5,1,0],[0.5,0,0],[0,0.5,0],[1,0.5,0]];labelBackgroundColor=none;rounded=1;html=1;whiteSpace=wrap;fontFamily=Calibri;" vertex="1" parent="3IBphvjYudPTPOBFQOcQ-187">
            <mxGeometry x="351.62382445141066" y="512.0000000000001" width="86.75235109717869" height="38" as="geometry" />
          </mxCell>
        </UserObject>
        <mxCell id="3IBphvjYudPTPOBFQOcQ-307" style="edgeStyle=orthogonalEdgeStyle;rounded=0;orthogonalLoop=1;jettySize=auto;html=1;entryX=0.5;entryY=0;entryDx=0;entryDy=0;" edge="1" parent="3IBphvjYudPTPOBFQOcQ-187" source="3IBphvjYudPTPOBFQOcQ-305" target="3IBphvjYudPTPOBFQOcQ-197">
          <mxGeometry relative="1" as="geometry" />
        </mxCell>
        <UserObject label="&lt;div style=&quot;&quot;&gt;&lt;span style=&quot;font-size: 11.29px;&quot;&gt;Reset Delay Flag&lt;/span&gt;&lt;/div&gt;" Function="EN_DIO_Error_T DIO_port_write(EN_DIO_PORT_T portNumber, uint8_t byte, uint8_t mask)" tags="Flowchart" id="3IBphvjYudPTPOBFQOcQ-305">
          <mxCell style="verticalAlign=middle;align=center;overflow=width;vsdxID=309;fillColor=#d5e8d4;shape=stencil(nZBLDoAgDERP0z3SIyjew0SURgSD+Lu9kMZoXLhwN9O+tukAlrNpJg1SzDH4QW/URgNYgZTkjA4UkwJUgGXng+6DX1zLfmoymdXo17xh5zmRJ6Q42BWCfc2oJfdAr+Yv+AP9Cb7OJ3H/2JG1HNGz/84klThPVCc=);strokeColor=#82b366;spacingTop=-1;spacingBottom=-1;spacingLeft=-1;spacingRight=-1;points=[[0,0.5,0],[1,0.5,0],[0.5,1,0],[0.5,0,0]];labelBackgroundColor=none;rounded=1;html=1;whiteSpace=wrap;fontFamily=Calibri;" vertex="1" parent="3IBphvjYudPTPOBFQOcQ-187">
            <mxGeometry x="335" y="396.65" width="120" height="29" as="geometry" />
          </mxCell>
        </UserObject>
        <mxCell id="3IBphvjYudPTPOBFQOcQ-198" value="&lt;font style=&quot;font-size: 14px;&quot;&gt;Stop Btn Check&amp;nbsp;Sub Process&lt;/font&gt;" style="swimlane;whiteSpace=wrap;html=1;rounded=1;fontSize=16;fontFamily=Calibri;fillColor=#ffe6cc;strokeColor=#d79b00;" vertex="1" parent="1">
          <mxGeometry x="502" y="-1137.65" width="291" height="284" as="geometry">
            <mxRectangle x="-207" y="152.5" width="134" height="31" as="alternateBounds" />
          </mxGeometry>
        </mxCell>
        <mxCell id="3IBphvjYudPTPOBFQOcQ-199" style="edgeStyle=orthogonalEdgeStyle;rounded=0;orthogonalLoop=1;jettySize=auto;html=1;entryX=0.5;entryY=0;entryDx=0;entryDy=0;" edge="1" parent="3IBphvjYudPTPOBFQOcQ-198" source="3IBphvjYudPTPOBFQOcQ-200" target="3IBphvjYudPTPOBFQOcQ-203">
          <mxGeometry relative="1" as="geometry" />
        </mxCell>
        <UserObject label="&lt;div style=&quot;font-size: 1px&quot;&gt;&lt;font style=&quot;font-size: 11.29px; direction: ltr; letter-spacing: 0px; line-height: 120%; opacity: 1;&quot;&gt;Start&lt;br&gt;&lt;/font&gt;&lt;/div&gt;" Function="EN_DIO_Error_T DIO_write(uint8_t pinNumber, EN_DIO_PORT_T portNumber, uint8_t value); " tags="Flowchart" id="3IBphvjYudPTPOBFQOcQ-200">
          <mxCell style="verticalAlign=middle;align=center;overflow=width;vsdxID=152;fillColor=#dae8fc;shape=stencil(tVLREoIgEPwaHnEQxsl3s/9gEpSJwDko7e+DsEkze2l627vdu5uFRaxyHe8FosR5sCcxqMZ3iO0Rpcp0ApQPCLEasUpaEC3Yi2lS3fOojOhsr3HDmObyMtsVcYqS29Qh5FEfklwrM5OXeUa/yjkcAwfr7TDpiyTfXvjkMR+Vw2A998qaBac5tAKHU1hq3i4oNwjRr9ofvayt/+Rk+yX/4iWA159KpXWKxJx/z0Bopfyw+g4=);strokeColor=#6c8ebf;spacingTop=-1;spacingBottom=-1;spacingLeft=-1;spacingRight=-1;points=[[0.5,1,0],[0.5,0,0],[0,0.5,0],[1,0.5,0]];labelBackgroundColor=none;rounded=1;html=1;whiteSpace=wrap;fontFamily=Calibri;" vertex="1" parent="3IBphvjYudPTPOBFQOcQ-198">
            <mxGeometry x="29.003824451410537" y="39.15000000000009" width="86.75235109717869" height="38" as="geometry" />
          </mxCell>
        </UserObject>
        <mxCell id="3IBphvjYudPTPOBFQOcQ-201" style="edgeStyle=orthogonalEdgeStyle;rounded=0;orthogonalLoop=1;jettySize=auto;html=1;entryX=0;entryY=0.5;entryDx=0;entryDy=0;" edge="1" parent="3IBphvjYudPTPOBFQOcQ-198" source="3IBphvjYudPTPOBFQOcQ-203" target="3IBphvjYudPTPOBFQOcQ-208">
          <mxGeometry relative="1" as="geometry" />
        </mxCell>
        <mxCell id="3IBphvjYudPTPOBFQOcQ-202" value="" style="edgeStyle=orthogonalEdgeStyle;rounded=0;orthogonalLoop=1;jettySize=auto;html=1;" edge="1" parent="3IBphvjYudPTPOBFQOcQ-198" source="3IBphvjYudPTPOBFQOcQ-203" target="3IBphvjYudPTPOBFQOcQ-206">
          <mxGeometry relative="1" as="geometry" />
        </mxCell>
        <mxCell id="3IBphvjYudPTPOBFQOcQ-203" value="`&lt;b&gt;&lt;i&gt;STOP&lt;/i&gt;&lt;/b&gt;` is&lt;br&gt;pressed?" style="rhombus;whiteSpace=wrap;html=1;fontSize=12;fontFamily=Calibri;fillColor=#fff2cc;strokeColor=#d6b656;" vertex="1" parent="3IBphvjYudPTPOBFQOcQ-198">
          <mxGeometry x="32.37999999999999" y="105.00000000000004" width="80" height="80" as="geometry" />
        </mxCell>
        <mxCell id="3IBphvjYudPTPOBFQOcQ-204" value="False" style="text;html=1;strokeColor=none;fillColor=none;align=center;verticalAlign=middle;whiteSpace=wrap;rounded=0;fontSize=12;fontFamily=Calibri;" vertex="1" parent="3IBphvjYudPTPOBFQOcQ-198">
          <mxGeometry x="24" y="191" width="39" height="16" as="geometry" />
        </mxCell>
        <mxCell id="3IBphvjYudPTPOBFQOcQ-205" value="True" style="text;html=1;strokeColor=none;fillColor=none;align=center;verticalAlign=middle;whiteSpace=wrap;rounded=0;fontSize=12;fontFamily=Calibri;" vertex="1" parent="3IBphvjYudPTPOBFQOcQ-198">
          <mxGeometry x="118" y="118" width="39" height="16" as="geometry" />
        </mxCell>
        <UserObject label="&lt;div style=&quot;font-size: 1px&quot;&gt;&lt;font style=&quot;font-size: 11.29px; direction: ltr; letter-spacing: 0px; line-height: 120%; opacity: 1;&quot;&gt;End&lt;br&gt;&lt;/font&gt;&lt;/div&gt;" Function="EN_DIO_Error_T DIO_write(uint8_t pinNumber, EN_DIO_PORT_T portNumber, uint8_t value); " tags="Flowchart" id="3IBphvjYudPTPOBFQOcQ-206">
          <mxCell style="verticalAlign=middle;align=center;overflow=width;vsdxID=152;fillColor=#dae8fc;shape=stencil(tVLREoIgEPwaHnEQxsl3s/9gEpSJwDko7e+DsEkze2l627vdu5uFRaxyHe8FosR5sCcxqMZ3iO0Rpcp0ApQPCLEasUpaEC3Yi2lS3fOojOhsr3HDmObyMtsVcYqS29Qh5FEfklwrM5OXeUa/yjkcAwfr7TDpiyTfXvjkMR+Vw2A998qaBac5tAKHU1hq3i4oNwjRr9ofvayt/+Rk+yX/4iWA159KpXWKxJx/z0Bopfyw+g4=);strokeColor=#6c8ebf;spacingTop=-1;spacingBottom=-1;spacingLeft=-1;spacingRight=-1;points=[[0.5,1,0],[0.5,0,0],[0,0.5,0],[1,0.5,0]];labelBackgroundColor=none;rounded=1;html=1;whiteSpace=wrap;fontFamily=Calibri;" vertex="1" parent="3IBphvjYudPTPOBFQOcQ-198">
            <mxGeometry x="29.003824451410537" y="229.0000000000001" width="86.75235109717869" height="38" as="geometry" />
          </mxCell>
        </UserObject>
        <mxCell id="3IBphvjYudPTPOBFQOcQ-221" value="" style="edgeStyle=orthogonalEdgeStyle;rounded=0;orthogonalLoop=1;jettySize=auto;html=1;" edge="1" parent="3IBphvjYudPTPOBFQOcQ-198" source="3IBphvjYudPTPOBFQOcQ-208" target="3IBphvjYudPTPOBFQOcQ-220">
          <mxGeometry relative="1" as="geometry">
            <Array as="points">
              <mxPoint x="212" y="179" />
              <mxPoint x="212" y="179" />
            </Array>
          </mxGeometry>
        </mxCell>
        <mxCell id="3IBphvjYudPTPOBFQOcQ-208" value="switchAppState&lt;br style=&quot;font-size: 12px;&quot;&gt;to `&lt;b&gt;&lt;i&gt;INITIAL&lt;/i&gt;&lt;/b&gt;`" style="shape=process;whiteSpace=wrap;html=1;backgroundOutline=1;fontSize=12;fillColor=#ffe6cc;strokeColor=#d79b00;fontFamily=Calibri;" vertex="1" parent="3IBphvjYudPTPOBFQOcQ-198">
          <mxGeometry x="152" y="129" width="120" height="32" as="geometry" />
        </mxCell>
        <mxCell id="3IBphvjYudPTPOBFQOcQ-222" style="edgeStyle=orthogonalEdgeStyle;rounded=0;orthogonalLoop=1;jettySize=auto;html=1;entryX=1;entryY=0.5;entryDx=0;entryDy=0;entryPerimeter=0;exitX=0.5;exitY=1;exitDx=0;exitDy=0;exitPerimeter=0;" edge="1" parent="3IBphvjYudPTPOBFQOcQ-198" source="3IBphvjYudPTPOBFQOcQ-220" target="3IBphvjYudPTPOBFQOcQ-206">
          <mxGeometry relative="1" as="geometry">
            <Array as="points">
              <mxPoint x="212" y="248" />
            </Array>
          </mxGeometry>
        </mxCell>
        <UserObject label="&lt;div style=&quot;font-size: 1px&quot;&gt;&lt;font style=&quot;font-size: 11.29px; direction: ltr; letter-spacing: 0px; line-height: 120%; opacity: 1;&quot;&gt;Break current context&lt;/font&gt;&lt;/div&gt;" Function="EN_DIO_Error_T DIO_port_write(EN_DIO_PORT_T portNumber, uint8_t byte, uint8_t mask)" tags="Flowchart" id="3IBphvjYudPTPOBFQOcQ-220">
          <mxCell style="verticalAlign=middle;align=center;overflow=width;vsdxID=309;fillColor=#d5e8d4;shape=stencil(nZBLDoAgDERP0z3SIyjew0SURgSD+Lu9kMZoXLhwN9O+tukAlrNpJg1SzDH4QW/URgNYgZTkjA4UkwJUgGXng+6DX1zLfmoymdXo17xh5zmRJ6Q42BWCfc2oJfdAr+Yv+AP9Cb7OJ3H/2JG1HNGz/84klThPVCc=);strokeColor=#82b366;spacingTop=-1;spacingBottom=-1;spacingLeft=-1;spacingRight=-1;points=[[0,0.5,0],[1,0.5,0],[0.5,1,0],[0.5,0,0]];labelBackgroundColor=none;rounded=1;html=1;whiteSpace=wrap;fontFamily=Calibri;" vertex="1" parent="3IBphvjYudPTPOBFQOcQ-198">
            <mxGeometry x="158" y="179.6500000000001" width="108" height="29" as="geometry" />
          </mxCell>
        </UserObject>
        <mxCell id="3IBphvjYudPTPOBFQOcQ-262" value="&lt;span style=&quot;font-size: 14px;&quot;&gt;Starting Sub Process&lt;/span&gt;" style="swimlane;whiteSpace=wrap;html=1;rounded=1;fontSize=16;fontFamily=Calibri;fillColor=#ffe6cc;strokeColor=#d79b00;startSize=23;" vertex="1" parent="1">
          <mxGeometry x="1673" y="-1137.65" width="481" height="629.65" as="geometry">
            <mxRectangle x="-207" y="152.5" width="134" height="31" as="alternateBounds" />
          </mxGeometry>
        </mxCell>
        <mxCell id="3IBphvjYudPTPOBFQOcQ-263" style="edgeStyle=orthogonalEdgeStyle;rounded=0;orthogonalLoop=1;jettySize=auto;html=1;entryX=0.5;entryY=0;entryDx=0;entryDy=0;entryPerimeter=0;" edge="1" parent="3IBphvjYudPTPOBFQOcQ-262" source="3IBphvjYudPTPOBFQOcQ-264" target="3IBphvjYudPTPOBFQOcQ-270">
          <mxGeometry relative="1" as="geometry" />
        </mxCell>
        <UserObject label="&lt;div style=&quot;font-size: 1px&quot;&gt;&lt;font style=&quot;font-size: 11.29px; direction: ltr; letter-spacing: 0px; line-height: 120%; opacity: 1;&quot;&gt;Start&lt;br&gt;&lt;/font&gt;&lt;/div&gt;" Function="EN_DIO_Error_T DIO_write(uint8_t pinNumber, EN_DIO_PORT_T portNumber, uint8_t value); " tags="Flowchart" id="3IBphvjYudPTPOBFQOcQ-264">
          <mxCell style="verticalAlign=middle;align=center;overflow=width;vsdxID=152;fillColor=#dae8fc;shape=stencil(tVLREoIgEPwaHnEQxsl3s/9gEpSJwDko7e+DsEkze2l627vdu5uFRaxyHe8FosR5sCcxqMZ3iO0Rpcp0ApQPCLEasUpaEC3Yi2lS3fOojOhsr3HDmObyMtsVcYqS29Qh5FEfklwrM5OXeUa/yjkcAwfr7TDpiyTfXvjkMR+Vw2A998qaBac5tAKHU1hq3i4oNwjRr9ofvayt/+Rk+yX/4iWA159KpXWKxJx/z0Bopfyw+g4=);strokeColor=#6c8ebf;spacingTop=-1;spacingBottom=-1;spacingLeft=-1;spacingRight=-1;points=[[0.5,1,0],[0.5,0,0],[0,0.5,0],[1,0.5,0]];labelBackgroundColor=none;rounded=1;html=1;whiteSpace=wrap;fontFamily=Calibri;" vertex="1" parent="3IBphvjYudPTPOBFQOcQ-262">
            <mxGeometry x="69.62382445141054" y="42.00000000000009" width="86.75235109717869" height="38" as="geometry" />
          </mxCell>
        </UserObject>
        <mxCell id="3IBphvjYudPTPOBFQOcQ-265" style="edgeStyle=orthogonalEdgeStyle;rounded=0;orthogonalLoop=1;jettySize=auto;html=1;entryX=0.5;entryY=0;entryDx=0;entryDy=0;entryPerimeter=0;" edge="1" parent="3IBphvjYudPTPOBFQOcQ-262" source="3IBphvjYudPTPOBFQOcQ-266" target="3IBphvjYudPTPOBFQOcQ-293">
          <mxGeometry relative="1" as="geometry" />
        </mxCell>
        <mxCell id="3IBphvjYudPTPOBFQOcQ-266" value="switchAppState&lt;br style=&quot;font-size: 12px;&quot;&gt;to `&lt;b&gt;&lt;i&gt;RUNNING&lt;/i&gt;&lt;/b&gt;`" style="shape=process;whiteSpace=wrap;html=1;backgroundOutline=1;fontSize=12;fillColor=#ffe6cc;strokeColor=#d79b00;fontFamily=Calibri;" vertex="1" parent="3IBphvjYudPTPOBFQOcQ-262">
          <mxGeometry x="278" y="511.79999999999995" width="120" height="32" as="geometry" />
        </mxCell>
        <mxCell id="3IBphvjYudPTPOBFQOcQ-268" value="Stop Btn Check" style="shape=process;whiteSpace=wrap;html=1;backgroundOutline=1;fontSize=12;fillColor=#ffe6cc;strokeColor=#d79b00;fontFamily=Calibri;" vertex="1" parent="3IBphvjYudPTPOBFQOcQ-262">
          <mxGeometry x="53" y="336.65000000000003" width="120" height="32" as="geometry" />
        </mxCell>
        <mxCell id="3IBphvjYudPTPOBFQOcQ-297" value="" style="edgeStyle=orthogonalEdgeStyle;rounded=0;orthogonalLoop=1;jettySize=auto;html=1;" edge="1" parent="3IBphvjYudPTPOBFQOcQ-262" source="3IBphvjYudPTPOBFQOcQ-270" target="3IBphvjYudPTPOBFQOcQ-294">
          <mxGeometry relative="1" as="geometry" />
        </mxCell>
        <UserObject label="&lt;div style=&quot;font-size: 1px&quot;&gt;&lt;font style=&quot;font-size: 11.29px; direction: ltr; letter-spacing: 0px; line-height: 120%; opacity: 1;&quot;&gt;Init 2 seconds async delay&lt;/font&gt;&lt;/div&gt;" Function="EN_DIO_Error_T DIO_port_write(EN_DIO_PORT_T portNumber, uint8_t byte, uint8_t mask)" tags="Flowchart" id="3IBphvjYudPTPOBFQOcQ-270">
          <mxCell style="verticalAlign=middle;align=center;overflow=width;vsdxID=309;fillColor=#d5e8d4;shape=stencil(nZBLDoAgDERP0z3SIyjew0SURgSD+Lu9kMZoXLhwN9O+tukAlrNpJg1SzDH4QW/URgNYgZTkjA4UkwJUgGXng+6DX1zLfmoymdXo17xh5zmRJ6Q42BWCfc2oJfdAr+Yv+AP9Cb7OJ3H/2JG1HNGz/84klThPVCc=);strokeColor=#82b366;spacingTop=-1;spacingBottom=-1;spacingLeft=-1;spacingRight=-1;points=[[0,0.5,0],[1,0.5,0],[0.5,1,0],[0.5,0,0]];labelBackgroundColor=none;rounded=1;html=1;whiteSpace=wrap;fontFamily=Calibri;" vertex="1" parent="3IBphvjYudPTPOBFQOcQ-262">
            <mxGeometry x="49" y="104.85" width="128" height="29" as="geometry" />
          </mxCell>
        </UserObject>
        <mxCell id="3IBphvjYudPTPOBFQOcQ-271" value="" style="edgeStyle=orthogonalEdgeStyle;rounded=0;orthogonalLoop=1;jettySize=auto;html=1;" edge="1" parent="3IBphvjYudPTPOBFQOcQ-262" source="3IBphvjYudPTPOBFQOcQ-273" target="3IBphvjYudPTPOBFQOcQ-268">
          <mxGeometry relative="1" as="geometry" />
        </mxCell>
        <mxCell id="3IBphvjYudPTPOBFQOcQ-272" style="edgeStyle=orthogonalEdgeStyle;rounded=0;orthogonalLoop=1;jettySize=auto;html=1;entryX=0.5;entryY=0;entryDx=0;entryDy=0;" edge="1" parent="3IBphvjYudPTPOBFQOcQ-262" source="3IBphvjYudPTPOBFQOcQ-273" target="3IBphvjYudPTPOBFQOcQ-289">
          <mxGeometry relative="1" as="geometry">
            <mxPoint x="345" y="476.79999999999995" as="targetPoint" />
          </mxGeometry>
        </mxCell>
        <mxCell id="3IBphvjYudPTPOBFQOcQ-273" value="&lt;b&gt;&lt;i&gt;(flag)&lt;br&gt;delay done?&lt;/i&gt;&lt;/b&gt;" style="rhombus;whiteSpace=wrap;html=1;fontSize=12;fontFamily=Calibri;fillColor=#fff2cc;strokeColor=#d6b656;" vertex="1" parent="3IBphvjYudPTPOBFQOcQ-262">
          <mxGeometry x="73" y="233.65000000000003" width="80" height="80" as="geometry" />
        </mxCell>
        <mxCell id="3IBphvjYudPTPOBFQOcQ-274" value="False" style="text;html=1;strokeColor=none;fillColor=none;align=center;verticalAlign=middle;whiteSpace=wrap;rounded=0;fontSize=12;fontFamily=Calibri;" vertex="1" parent="3IBphvjYudPTPOBFQOcQ-262">
          <mxGeometry x="63.620000000000005" y="309.65" width="39" height="16" as="geometry" />
        </mxCell>
        <mxCell id="3IBphvjYudPTPOBFQOcQ-275" value="True" style="text;html=1;strokeColor=none;fillColor=none;align=center;verticalAlign=middle;whiteSpace=wrap;rounded=0;fontSize=12;fontFamily=Calibri;" vertex="1" parent="3IBphvjYudPTPOBFQOcQ-262">
          <mxGeometry x="163.62" y="253.64999999999998" width="39" height="16" as="geometry" />
        </mxCell>
        <mxCell id="3IBphvjYudPTPOBFQOcQ-281" style="edgeStyle=orthogonalEdgeStyle;rounded=0;orthogonalLoop=1;jettySize=auto;html=1;entryX=0;entryY=0.5;entryDx=0;entryDy=0;exitX=0.5;exitY=1;exitDx=0;exitDy=0;" edge="1" parent="3IBphvjYudPTPOBFQOcQ-262" source="3IBphvjYudPTPOBFQOcQ-268" target="3IBphvjYudPTPOBFQOcQ-273">
          <mxGeometry relative="1" as="geometry">
            <Array as="points">
              <mxPoint x="113" y="393" />
              <mxPoint x="21" y="393" />
              <mxPoint x="21" y="274" />
            </Array>
          </mxGeometry>
        </mxCell>
        <mxCell id="3IBphvjYudPTPOBFQOcQ-285" style="edgeStyle=orthogonalEdgeStyle;rounded=0;orthogonalLoop=1;jettySize=auto;html=1;exitX=0;exitY=0;exitDx=101;exitDy=20;exitPerimeter=0;entryX=0.783;entryY=0.005;entryDx=0;entryDy=0;entryPerimeter=0;curved=1;dashed=1;" edge="1" parent="3IBphvjYudPTPOBFQOcQ-262" source="3IBphvjYudPTPOBFQOcQ-286" target="3IBphvjYudPTPOBFQOcQ-268">
          <mxGeometry relative="1" as="geometry" />
        </mxCell>
        <mxCell id="3IBphvjYudPTPOBFQOcQ-286" value="&lt;font style=&quot;font-size: 10px;&quot;&gt;Breaks timeout loop internally if pressed&lt;/font&gt;" style="shape=note;whiteSpace=wrap;html=1;backgroundOutline=1;fontColor=#000000;darkOpacity=0.05;fillColor=#FFF9B2;strokeColor=none;fillStyle=solid;direction=west;gradientDirection=north;gradientColor=#FFF2A1;shadow=1;size=20;pointerEvents=1;opacity=80;" vertex="1" parent="3IBphvjYudPTPOBFQOcQ-262">
          <mxGeometry x="176" y="309.65" width="101" height="33.85" as="geometry" />
        </mxCell>
        <mxCell id="3IBphvjYudPTPOBFQOcQ-288" style="edgeStyle=orthogonalEdgeStyle;rounded=0;orthogonalLoop=1;jettySize=auto;html=1;entryX=1;entryY=0.5;entryDx=0;entryDy=0;entryPerimeter=0;exitX=1;exitY=0.5;exitDx=0;exitDy=0;" edge="1" parent="3IBphvjYudPTPOBFQOcQ-262" source="3IBphvjYudPTPOBFQOcQ-289" target="3IBphvjYudPTPOBFQOcQ-293">
          <mxGeometry relative="1" as="geometry">
            <Array as="points">
              <mxPoint x="419" y="401" />
              <mxPoint x="419" y="587" />
              <mxPoint x="381" y="587" />
            </Array>
          </mxGeometry>
        </mxCell>
        <mxCell id="3IBphvjYudPTPOBFQOcQ-302" value="" style="edgeStyle=orthogonalEdgeStyle;rounded=0;orthogonalLoop=1;jettySize=auto;html=1;" edge="1" parent="3IBphvjYudPTPOBFQOcQ-262" source="3IBphvjYudPTPOBFQOcQ-289" target="3IBphvjYudPTPOBFQOcQ-301">
          <mxGeometry relative="1" as="geometry" />
        </mxCell>
        <mxCell id="3IBphvjYudPTPOBFQOcQ-289" value="&lt;b&gt;&lt;i&gt;state is&lt;br&gt;&#39;STARTING&#39;&lt;br&gt;&lt;/i&gt;&lt;/b&gt;" style="rhombus;whiteSpace=wrap;html=1;fontSize=12;fontFamily=Calibri;fillColor=#fff2cc;strokeColor=#d6b656;" vertex="1" parent="3IBphvjYudPTPOBFQOcQ-262">
          <mxGeometry x="298" y="360.80000000000007" width="80" height="80" as="geometry" />
        </mxCell>
        <mxCell id="3IBphvjYudPTPOBFQOcQ-290" value="&lt;span style=&quot;font-size: 10px;&quot;&gt;checks if state isn&#39;t changed by stop button sub-process&lt;/span&gt;" style="shape=note;whiteSpace=wrap;html=1;backgroundOutline=1;fontColor=#000000;darkOpacity=0.05;fillColor=#FFF9B2;strokeColor=none;fillStyle=solid;direction=west;gradientDirection=north;gradientColor=#FFF2A1;shadow=1;size=20;pointerEvents=1;opacity=80;" vertex="1" parent="3IBphvjYudPTPOBFQOcQ-262">
          <mxGeometry x="351" y="328.8" width="115" height="54" as="geometry" />
        </mxCell>
        <mxCell id="3IBphvjYudPTPOBFQOcQ-291" value="False" style="text;html=1;strokeColor=none;fillColor=none;align=center;verticalAlign=middle;whiteSpace=wrap;rounded=0;fontSize=12;fontFamily=Calibri;" vertex="1" parent="3IBphvjYudPTPOBFQOcQ-262">
          <mxGeometry x="421" y="406.8" width="39" height="16" as="geometry" />
        </mxCell>
        <mxCell id="3IBphvjYudPTPOBFQOcQ-292" value="True" style="text;html=1;strokeColor=none;fillColor=none;align=center;verticalAlign=middle;whiteSpace=wrap;rounded=0;fontSize=12;fontFamily=Calibri;" vertex="1" parent="3IBphvjYudPTPOBFQOcQ-262">
          <mxGeometry x="291" y="443.79999999999995" width="39" height="16" as="geometry" />
        </mxCell>
        <UserObject label="&lt;div style=&quot;font-size: 1px&quot;&gt;&lt;font style=&quot;font-size: 11.29px; direction: ltr; letter-spacing: 0px; line-height: 120%; opacity: 1;&quot;&gt;End&lt;br&gt;&lt;/font&gt;&lt;/div&gt;" Function="EN_DIO_Error_T DIO_write(uint8_t pinNumber, EN_DIO_PORT_T portNumber, uint8_t value); " tags="Flowchart" id="3IBphvjYudPTPOBFQOcQ-293">
          <mxCell style="verticalAlign=middle;align=center;overflow=width;vsdxID=152;fillColor=#dae8fc;shape=stencil(tVLREoIgEPwaHnEQxsl3s/9gEpSJwDko7e+DsEkze2l627vdu5uFRaxyHe8FosR5sCcxqMZ3iO0Rpcp0ApQPCLEasUpaEC3Yi2lS3fOojOhsr3HDmObyMtsVcYqS29Qh5FEfklwrM5OXeUa/yjkcAwfr7TDpiyTfXvjkMR+Vw2A998qaBac5tAKHU1hq3i4oNwjRr9ofvayt/+Rk+yX/4iWA159KpXWKxJx/z0Bopfyw+g4=);strokeColor=#6c8ebf;spacingTop=-1;spacingBottom=-1;spacingLeft=-1;spacingRight=-1;points=[[0.5,1,0],[0.5,0,0],[0,0.5,0],[1,0.5,0]];labelBackgroundColor=none;rounded=1;html=1;whiteSpace=wrap;fontFamily=Calibri;" vertex="1" parent="3IBphvjYudPTPOBFQOcQ-262">
            <mxGeometry x="294.62382445141066" y="568.8000000000001" width="86.75235109717869" height="38" as="geometry" />
          </mxCell>
        </UserObject>
        <mxCell id="3IBphvjYudPTPOBFQOcQ-299" style="edgeStyle=orthogonalEdgeStyle;rounded=0;orthogonalLoop=1;jettySize=auto;html=1;entryX=0.5;entryY=0;entryDx=0;entryDy=0;" edge="1" parent="3IBphvjYudPTPOBFQOcQ-262" source="3IBphvjYudPTPOBFQOcQ-294" target="3IBphvjYudPTPOBFQOcQ-273">
          <mxGeometry relative="1" as="geometry" />
        </mxCell>
        <UserObject label="&lt;div style=&quot;font-size: 1px&quot;&gt;&lt;font style=&quot;font-size: 11.29px; direction: ltr; letter-spacing: 0px; line-height: 120%; opacity: 1;&quot;&gt;Print on LCD (∞):&lt;br&gt;&lt;b style=&quot;&quot;&gt;Starting...&lt;/b&gt;&lt;/font&gt;&lt;/div&gt;&lt;div style=&quot;font-size: 1px&quot;&gt;&lt;font style=&quot;font-size: 11.29px; direction: ltr; letter-spacing: 0px; line-height: 120%; opacity: 1;&quot;&gt;&lt;b style=&quot;&quot;&gt;Direction:&amp;lt;last pref.dir&amp;gt;&lt;/b&gt;&lt;/font&gt;&lt;/div&gt;" Function="EN_DIO_Error_T DIO_port_write(EN_DIO_PORT_T portNumber, uint8_t byte, uint8_t mask)" tags="Flowchart" id="3IBphvjYudPTPOBFQOcQ-294">
          <mxCell style="verticalAlign=middle;align=center;overflow=width;vsdxID=309;fillColor=#d5e8d4;shape=stencil(nZBLDoAgDERP0z3SIyjew0SURgSD+Lu9kMZoXLhwN9O+tukAlrNpJg1SzDH4QW/URgNYgZTkjA4UkwJUgGXng+6DX1zLfmoymdXo17xh5zmRJ6Q42BWCfc2oJfdAr+Yv+AP9Cb7OJ3H/2JG1HNGz/84klThPVCc=);strokeColor=#82b366;spacingTop=-1;spacingBottom=-1;spacingLeft=-1;spacingRight=-1;points=[[0,0.5,0],[1,0.5,0],[0.5,1,0],[0.5,0,0]];labelBackgroundColor=none;rounded=1;html=1;whiteSpace=wrap;fontFamily=Calibri;" vertex="1" parent="3IBphvjYudPTPOBFQOcQ-262">
            <mxGeometry x="49" y="156.65" width="128" height="45.35" as="geometry" />
          </mxCell>
        </UserObject>
        <mxCell id="3IBphvjYudPTPOBFQOcQ-295" value="&amp;lt;last pref.dir&amp;gt;:&lt;br&gt;last preferred direction&lt;br&gt;`&lt;b&gt;&lt;i&gt;Right&lt;/i&gt;&lt;/b&gt;` or `&lt;b&gt;&lt;i&gt;Left&lt;/i&gt;&lt;/b&gt;`" style="shape=note;whiteSpace=wrap;html=1;backgroundOutline=1;fontColor=#000000;darkOpacity=0.05;fillColor=#FFF9B2;strokeColor=none;fillStyle=solid;direction=west;gradientDirection=north;gradientColor=#FFF2A1;shadow=1;size=20;pointerEvents=1;opacity=80;" vertex="1" parent="3IBphvjYudPTPOBFQOcQ-262">
          <mxGeometry x="214.0000000000001" y="94.65000000000009" width="147.6" height="54.6" as="geometry" />
        </mxCell>
        <mxCell id="3IBphvjYudPTPOBFQOcQ-296" style="edgeStyle=orthogonalEdgeStyle;rounded=0;orthogonalLoop=1;jettySize=auto;html=1;entryX=0.998;entryY=0.04;entryDx=0;entryDy=0;entryPerimeter=0;curved=1;dashed=1;" edge="1" source="3IBphvjYudPTPOBFQOcQ-295" parent="3IBphvjYudPTPOBFQOcQ-262" target="3IBphvjYudPTPOBFQOcQ-294">
          <mxGeometry relative="1" as="geometry">
            <mxPoint x="193.4000000000001" y="167.10000000000002" as="targetPoint" />
          </mxGeometry>
        </mxCell>
        <mxCell id="3IBphvjYudPTPOBFQOcQ-304" style="edgeStyle=orthogonalEdgeStyle;rounded=0;orthogonalLoop=1;jettySize=auto;html=1;entryX=0.5;entryY=0;entryDx=0;entryDy=0;" edge="1" parent="3IBphvjYudPTPOBFQOcQ-262" source="3IBphvjYudPTPOBFQOcQ-301" target="3IBphvjYudPTPOBFQOcQ-266">
          <mxGeometry relative="1" as="geometry" />
        </mxCell>
        <UserObject label="&lt;div style=&quot;font-size: 1px&quot;&gt;&lt;font style=&quot;font-size: 11.29px; direction: ltr; letter-spacing: 0px; line-height: 120%; opacity: 1;&quot;&gt;Reset delay flag&lt;/font&gt;&lt;/div&gt;" Function="EN_DIO_Error_T DIO_port_write(EN_DIO_PORT_T portNumber, uint8_t byte, uint8_t mask)" tags="Flowchart" id="3IBphvjYudPTPOBFQOcQ-301">
          <mxCell style="verticalAlign=middle;align=center;overflow=width;vsdxID=309;fillColor=#d5e8d4;shape=stencil(nZBLDoAgDERP0z3SIyjew0SURgSD+Lu9kMZoXLhwN9O+tukAlrNpJg1SzDH4QW/URgNYgZTkjA4UkwJUgGXng+6DX1zLfmoymdXo17xh5zmRJ6Q42BWCfc2oJfdAr+Yv+AP9Cb7OJ3H/2JG1HNGz/84klThPVCc=);strokeColor=#82b366;spacingTop=-1;spacingBottom=-1;spacingLeft=-1;spacingRight=-1;points=[[0,0.5,0],[1,0.5,0],[0.5,1,0],[0.5,0,0]];labelBackgroundColor=none;rounded=1;html=1;whiteSpace=wrap;fontFamily=Calibri;" vertex="1" parent="3IBphvjYudPTPOBFQOcQ-262">
            <mxGeometry x="274" y="462.65" width="128" height="29" as="geometry" />
          </mxCell>
        </UserObject>
        <mxCell id="3IBphvjYudPTPOBFQOcQ-308" value="&lt;span style=&quot;font-size: 14px;&quot;&gt;Running Sub Process&lt;/span&gt;" style="swimlane;whiteSpace=wrap;html=1;rounded=1;fontSize=16;fontFamily=Calibri;fillColor=#ffe6cc;strokeColor=#d79b00;startSize=23;" vertex="1" parent="1">
          <mxGeometry x="2546" y="-1137" width="733" height="1017" as="geometry">
            <mxRectangle x="-207" y="152.5" width="134" height="31" as="alternateBounds" />
          </mxGeometry>
        </mxCell>
        <mxCell id="3IBphvjYudPTPOBFQOcQ-309" style="edgeStyle=orthogonalEdgeStyle;rounded=0;orthogonalLoop=1;jettySize=auto;html=1;entryX=0.5;entryY=0;entryDx=0;entryDy=0;entryPerimeter=0;" edge="1" parent="3IBphvjYudPTPOBFQOcQ-308" source="3IBphvjYudPTPOBFQOcQ-310" target="3IBphvjYudPTPOBFQOcQ-315">
          <mxGeometry relative="1" as="geometry" />
        </mxCell>
        <UserObject label="&lt;div style=&quot;font-size: 1px&quot;&gt;&lt;font style=&quot;font-size: 11.29px; direction: ltr; letter-spacing: 0px; line-height: 120%; opacity: 1;&quot;&gt;Start&lt;br&gt;&lt;/font&gt;&lt;/div&gt;" Function="EN_DIO_Error_T DIO_write(uint8_t pinNumber, EN_DIO_PORT_T portNumber, uint8_t value); " tags="Flowchart" id="3IBphvjYudPTPOBFQOcQ-310">
          <mxCell style="verticalAlign=middle;align=center;overflow=width;vsdxID=152;fillColor=#dae8fc;shape=stencil(tVLREoIgEPwaHnEQxsl3s/9gEpSJwDko7e+DsEkze2l627vdu5uFRaxyHe8FosR5sCcxqMZ3iO0Rpcp0ApQPCLEasUpaEC3Yi2lS3fOojOhsr3HDmObyMtsVcYqS29Qh5FEfklwrM5OXeUa/yjkcAwfr7TDpiyTfXvjkMR+Vw2A998qaBac5tAKHU1hq3i4oNwjRr9ofvayt/+Rk+yX/4iWA159KpXWKxJx/z0Bopfyw+g4=);strokeColor=#6c8ebf;spacingTop=-1;spacingBottom=-1;spacingLeft=-1;spacingRight=-1;points=[[0.5,1,0],[0.5,0,0],[0,0.5,0],[1,0.5,0]];labelBackgroundColor=none;rounded=1;html=1;whiteSpace=wrap;fontFamily=Calibri;" vertex="1" parent="3IBphvjYudPTPOBFQOcQ-308">
            <mxGeometry x="69.62382445141054" y="42.00000000000009" width="86.75235109717869" height="38" as="geometry" />
          </mxCell>
        </UserObject>
        <mxCell id="3IBphvjYudPTPOBFQOcQ-314" value="" style="edgeStyle=orthogonalEdgeStyle;rounded=0;orthogonalLoop=1;jettySize=auto;html=1;entryX=0.5;entryY=0;entryDx=0;entryDy=0;" edge="1" parent="3IBphvjYudPTPOBFQOcQ-308" source="3IBphvjYudPTPOBFQOcQ-315" target="3IBphvjYudPTPOBFQOcQ-337">
          <mxGeometry relative="1" as="geometry">
            <mxPoint x="113" y="156.6500000000001" as="targetPoint" />
          </mxGeometry>
        </mxCell>
        <UserObject label="&lt;div style=&quot;&quot;&gt;&lt;span style=&quot;font-size: 11.29px;&quot;&gt;ultrasonic getDistance&lt;/span&gt;&lt;/div&gt;" Function="EN_DIO_Error_T DIO_port_write(EN_DIO_PORT_T portNumber, uint8_t byte, uint8_t mask)" tags="Flowchart" id="3IBphvjYudPTPOBFQOcQ-315">
          <mxCell style="verticalAlign=middle;align=center;overflow=width;vsdxID=309;fillColor=#d5e8d4;shape=stencil(nZBLDoAgDERP0z3SIyjew0SURgSD+Lu9kMZoXLhwN9O+tukAlrNpJg1SzDH4QW/URgNYgZTkjA4UkwJUgGXng+6DX1zLfmoymdXo17xh5zmRJ6Q42BWCfc2oJfdAr+Yv+AP9Cb7OJ3H/2JG1HNGz/84klThPVCc=);strokeColor=#82b366;spacingTop=-1;spacingBottom=-1;spacingLeft=-1;spacingRight=-1;points=[[0,0.5,0],[1,0.5,0],[0.5,1,0],[0.5,0,0]];labelBackgroundColor=none;rounded=1;html=1;whiteSpace=wrap;fontFamily=Calibri;" vertex="1" parent="3IBphvjYudPTPOBFQOcQ-308">
            <mxGeometry x="49" y="104.85" width="128" height="29" as="geometry" />
          </mxCell>
        </UserObject>
        <mxCell id="3IBphvjYudPTPOBFQOcQ-339" style="edgeStyle=orthogonalEdgeStyle;rounded=0;orthogonalLoop=1;jettySize=auto;html=1;" edge="1" parent="3IBphvjYudPTPOBFQOcQ-308" source="3IBphvjYudPTPOBFQOcQ-337">
          <mxGeometry relative="1" as="geometry">
            <mxPoint x="113" y="237" as="targetPoint" />
          </mxGeometry>
        </mxCell>
        <mxCell id="3IBphvjYudPTPOBFQOcQ-337" value="APP_updateUI(distance)" style="shape=process;whiteSpace=wrap;html=1;backgroundOutline=1;fontSize=12;fillColor=#ffe6cc;strokeColor=#d79b00;fontFamily=Calibri;" vertex="1" parent="3IBphvjYudPTPOBFQOcQ-308">
          <mxGeometry x="34.81" y="164" width="156.38" height="31" as="geometry" />
        </mxCell>
        <mxCell id="3IBphvjYudPTPOBFQOcQ-340" value="" style="shape=image;verticalLabelPosition=bottom;labelBackgroundColor=default;verticalAlign=top;aspect=fixed;imageAspect=0;image=data:image/jpeg,/9j/4AAQSkZJRgABAQAAAQABAAD/2wCEAAkGBxAQEBAQEBAQEBAPDw8PDw8PDw8NDQ0NFREWFhURFRUYHSggGBolGxUVITEhJSkrLi4uFx8zODMsNygtLi0BCgoKDg0OFQ8QFSsZFRkrKy0tKy0rKy0tKy0tKy0tLS0tNy0rLSstKystLSs3KysrLTEtLTItKy00Kys3ODcrMv/AABEIAhQCQQMBIgACEQEDEQH/xAAbAAACAwEBAQAAAAAAAAAAAAABAgADBAUGB//EADcQAAICAgEDAwMDAgUDBAMAAAABAgMEESESMUEFUWETcZEUgaGx0QYiwfDxFUJSMmJykhYjU//EABkBAQEBAQEBAAAAAAAAAAAAAAABAgMEBf/EAB4RAQEBAQEBAQEBAQEAAAAAAAABEQISAyExE1FB/9oADAMBAAIRAxEAPwDySRCJ6BsiH6l2A3/Ai7g6jKH2LJAi+RuFwIIR/kCI2aUUitssbFhHyA2+wrX77DIVSYAm/wDgkZA1yNKPAB6hZdwpdif3Igp+4vcFnItMfJQVvuMpaB0sEYvbIhk+BotC+Fv7r7EaAMhkiuQ0GuSqcUXfBCUqeRkL0kIiPROwriGS7Fiw0UFx35K+UHkqrP3I0LBDNgB8hSB2BJMBosmweBWGTdXBIgX2Cg0YDlyQj7igbexpA2BEgENMfQIx1sXqKGk+BIkjxwHfH7kqUV4+AsVIMkWLE6gonTwInoBvIUBDNbAgvyHYu3+wDNjoRsKYZTYs1rXI2gP7BYXe2R8DaJv+ApYLyFMiYWuwESCLBjAACYyRFHgCaFft7hbI2DS9MgJP8jtkSCE6WQsIAURhUQSRkFIVx1r7hTJIYpenkM2k9AYJPz5LAWxJFiEn34KGgwRkSLEiuQLGAE2CHcArsTYzQFEiUqYWHpIyYEk+Rf6DSa2BRNah9hixPA8GZUZLj7LX8lae3x7Fs3tFceDWpBkmRRI37B37hoIrREg75IgIwKXgZCbFSjzoRLbLGB+6EAkgt8i9exogMuA6QkuRuwUQCuQQIxW9jRQOkBlEjRNkAVtobYqGZAGGKIv6h18kwRibJsMtFgV+4Ood87EjH3FSmjELBEYpEFn4Wuw4ApXEZdib+SS4Q0Vp8hciIiXBEPGIyEixt8FUUBhTBJmcQtiAu47YF8lioloE2SQUuBSouADIMAjoegem/qbfpttQUXObXD1wv6tG712/0/GkqasaWTf/APzhdZHs+f8A075MfouVKqOXZHhwxJtfdSidH/CcljYNeXXX9XP9QyZY0LJ66a7G58v/ANv/AOpv8Gfp9v8ALnc21x5+d+n0y38c7Jy8apwdvptsa5VwnZZ9XJTrlJaa/wA2lpHU9S9GxbMZ5GG+Iwc2lKUoSilt76nwzTjevZMM+Xpue68uq5xqk4whVKEn5XuudftwcXEj+lyvVMGtv6EcfIlGMnvpagmtf/Zfgz8Pve7eO5+r9vj4zrm/ji74GUuAqPj/AH2BFM6us/ghJ9N+5AqwSUiKWgNkxDIRjJitbKqImgMMew0L0ASGcvAvkBUFtrx/I6Qn7kqUspbCmTsgJj+EWKQyeyosrRVTyI3yNIrfcaaaWiRAoja7oygNkTJrbJDgYurPAuibAghukVrkcWMuTVKWY0CTiDfBEgzkDpELIourqMDgwpB6gpHwNFkmGCIG0JP3Glv4Ek/BQVEkn4Gr5J0/yAkZg2M6+WTp4Abq+AOQdc/sJoiGi+BZTS7hjH3BNEgZeNCuTQdNBktmtUsUGT5DrgDQDNAiidQFIAR7ljS8CjJAQm0BMGgC9BlyVN+6H2vkmIkUNojYRhgcEQEGUSqDYyQOkg0QXYEg7a/0+4Ea90GIqfuNJewBYFwwyYrjtAdf0DG+t+pq3r6mNOG96S3JJNsXD9Trqwr/AE7Lg67sb6t+Ham0v1C249L/APL/ADPns1sxYWbKianHW0mmnvplF+GdD1L1XHyEldjdTSSUlYoyXvppb0Y75neS/wDjzzr6cd7J+LvQbsOL/wCqZ+XC/JSjOGLFJWV2R7OXL6uUueNc9yr0yuy+Wf6jZH6f16bowht8xaXPb2ikc+t4MJRksSTafad7mvwzf6r6/K2v6UK1XCSXVzttLxx4M/P5Tjq97+r9e++5OZPxyKpbfK1wKpkr/uK137nWO0/B+sQTo+CFXWjhiy4QV+wGiBYsYCWudAcmAZIiQvUFtk/gaUQJA6uRki6aWIelCt9wbYBaJ7IiYfBLEK486H7C7DJFEkmxekd/cr5JhgsC/IEFSICv5CpESJruXQqY77CxQ8v5GGI+BQte/cUqmlMrch1HkjRKzit8/gsrnwRFeyBurZN6JEGudliwynvjQyYjDDZVM2RJNk0GCAZcETA2TY1NGfb7kA32F2wqMKI0R/wiIXyMB/buMRdJ1C7LGK+/AQYsjkBkimWQhtJkmta+5EWVLff9iqqb5C2CwkQDvsSRGAmpoyAtjaIiqiB242FMiAJERE88Cib5A0Er5MxFnAk98fkkhovZpVWv6l2/gXpJJ/wAdhl4J1AkZoDDKPBOpDb2DVbXYEhnwSTNQv6HUCL5AiJchMWkBpkBgtBSFA2FGZHwRCyGhkCTA2HZKmkeyyJNk3oQiS4ETI2B+ClKmXLsUa/kMUBa2CUvAqCnv9gIKNYwLsFAKSFD1smMnj5JDyV9XkKk3+Bgsb0TWyvYykXV0Z+BWx5IrkgasjLaBIkeFokXrYNBlaLX23sriiYhmtErXYCY3UP4sppIBEwsaaEEN0gh5C0VVc3yFMm9ib1syyu0KpP2GTFTNLpu4OoKYswpya4EghtkxMNx/As0K3yNJDDAfkXfI+ya+CqZ+3wNXLfAiQ8EgDOpGdmnRRKAEbQoddv3D5JiYCb/AGDBefBIc7Ilr8aKabYP3QGkCKJqnBoiROkoiYdiJglsmAz+BUTfAUVNOgfsVt+wyT13ZKabfGgoSLb7jRQwBoIFIDfP8jAdkhIG9gTH8NPJciyZO/sMu/YaanWEPUQaagGEXqKqEYNjaIICSIkL3ZUw/VxpoCaDZH2FWtjFHZW4sO0GTJQG+wBxGWIGhooOicASwXYQSJpoIMQojKgKIUiJ7RGyaC2K3sZ9hGwLW+O4rQkBmxoLA5DdfwI+WUCTegRDIiAhGx4xfnsJJckob2HXcWCGkyAkkiE2ajRCuSLpPX7iNGUHwSK4+48EEurit7RENJCDQ0piPkPTwGI0HpHSFUyNlE2ScWi3HrXcl/kUVKQyJoDEB2wMLRNALoVyHbBFgSLGIkRhMK5BihEhlIyptA2RkSNAJAm9k2+SbCajFlz/AGFkFv8AAQEtFm+xWWxXBKJongnUFCKXXH4JIMmJsobsJJhaJ0ckqGggyQIIEu5BNEG2iAFgjEO+wFLjZppGiRkRsEgJJ+wYE6QpBJUcgJ+RZ9wJBUaY2gyYF5JQs9gHkhNESoRMVPwM1o1EGfINEm+NirZFHQWgphGoXZESQVEYCCT7L5DNcCbIDJEI2RADZNDOKBosChrSIGKFDKSF8k1oMmAyYegWPIzLiwdASCgSYVAKPfZEwrkgaCIDQOrQwSbK2x2TpICpLsLIMkTpKF0NEkkBIamtNK0hGmx6Z+Bdj+hWKwTJEqmChZMeK4CDNcFexnL+ugBSpjC+Qb7gFRQIx0D5C2A7A+wNiybADYVIkUTpIlB8gGa0KmVAivctS45E6eR2uCUAKfdA7IC8kWI0FMZLgSXBdKD2T9iJhcggoSRAS8EB0QcADg7InITTReoHIWiRCImNJChT5IoNoIk+GRzKI2FsAW+CVKgenYibGj3IgyiRoMmBpsKVR2GS0Tq0LJ7NKnkil3Au4xGUbAm9IGgxZNDN70SUCMPVwAvTruSPf4JZLaQImsUX3FbLdIq8gqMZMhHolQOsGwtbAkIGhFjvuCMiPuVqJJcjAb5DJgKwwQvcd/AEb5Ekgv8AqRoyJFhTF0RGsBbI1/qxG+Rt6ZEFIbYsZ6ApEIsr/wDV9h2xa+5bIsVQBhl4+6I37FASLJy4K1IsIlJ9vdML9guIIoqwEBR/kaZAAkJsjkwAWSXD+NFWy73+SuQEjPQXITQersEMlsXpDGTDKQSGgDqJ9iKIaJKYFIMxNkqVZCWwzFixmRCbIpAkRo1BAPwEZRGImwDaITEGZG/BHsi92VsAOQ/UhZcgCPIfPANkTC1G+QNFiiFRJEitJeeCOI8kBClJEKXIRmyEK/wFv5I3wHgCrYY6GloVGoBPuGIXyKmEWLgVjJbFml3AKXAIsAJICTXsNFEl2QEgsPZ8CP3Gl7CtBadPaBWVx2NF6DJVxwHetASBJdiC2TBoOuCRfOiiS7hfuBrW/uSQUY9hoiRQ6loil2KpbQJsiXsRlNFmhYosCkcUCS5IGBYFC0GYYFUa3z+5bMpT5H2vcJUFnHjgKmQIr0Ot8AXlBJQ+9EBIXZQG3sYVvwHQaIGK5HQikBOfcKQdAmuAFmKg7+AwW0BIrzsMUtEkRdgkMwR+Q7IFVSBGO2Roben8MlSmUVskmSSFcSASiNFBUSJFCNDRDLQpUP0ogvSwAXJ7Fkn+xHIHVvgNBIr2y6C4AwVUySJon3DKyPuMhYdiSZKBJiR7jSBrsRYdvkWbF1z5B7lUWyytFaLIS7lEkuRZAcgFET0MmI4+Qogbqf2IuwsiIAvt2BvwM3wSETLIbHiDp5G0FCXLBrknUIWFRkG4aF0Vmi2FMXROoLDJhT5FRGSh5sjBsiWyKMWRrsD/AH9yNgGS8C64C3sLYE3pILFlsMUFFEfBBZFinfdADBb8DShoqE8hb8Cvexep7AsSJJAQXyBVJhT9g67jxQDb9waI0QBRv3EbGmuPuAikRdx4UvXY1QxHJezM6MxDfj+ny29r9yz9A2T0uOX0EZtniyT1psotx2tai/JdRmT5I2WKt+wmtsImwtg6RW/ABk0xYhYUghWP8iyX4I/C9yiTFGmuwEVAbG3+wqQdBTaf/kQr0vkgDkQYxAtchTxfsSQq+A71+5FJKKYshtgUdlrJ6+wJR5JsJlYKBrW+ReohYoAYWia1oqUU9Bm+3AGgMImiBFAZvglYsfIyYA0RMKQYxALRETwRSIC2FzQvUBogEpJsiXcmguJYFj2DHsPGAi4KC5FexkDQFkI8Jgkgp+ATT7EoZfYO/Yrc9BaDQT79gBlEkIhkyQdCwGcl8kEewsXrI5Bo6XkDDF7G0i0WY0XoN/bjwGl8AvaESMy2KkOmSPBVRyRE0I0BIaHHQIRCNDvS+wutjqts04+K+Ec+usWRiVbbN2LguWn8nWxvSeDrUenKOvjwce/p/wAdeOHJp9NNteGl4Ns4pHOy8+MV+xy92teWjpSKrMita2zz+Z6q1vT7HIs9Rcl3OvMrnXr8jMpXlbMyyKX5R4yzIbfMv5Fd/wAneM17ZKuXC0zLfhJvjj7aPJVZ04v/ACyZ18L1nX/q5Ki/KxZJ8GGxNPR2o5EZ/uVZGMt+CxHLSHXsNGrl+wH3KFnHgT22W7EsYZpPb7DRREGJERomiLRGyqmkQGiAWJgEkwxDRpeBGh29i6Ms4AEHpA0XQYjpoTQRViOPd/uDRN/0ImSFBoA/gQ0gsDfYKRGBJkSI+SaBidvBNkZE/gLgphTFQdBMCUg9wJD60DAQUiRRHvwZXBS5CwxKnL/NoGH2V/1LJAjEGEQdDOAdAwsHyS3uNojWyrCRjsZDdHsLJeCJh4w2mL0EWwJgwjJ8DMKWjSYiiST0FsD5MqaDI+REtDRCRZXPWkWW8lMXyMpljSrXP7jNCvuFMUEHYOw9OyIZI04+O29kpp34Ozg4nGl37nPvuRvmM1GC2zs4WCuDRjYejbCCR4+/r/49XPzWVUpINvHIsrdIw5WXvhdzl6rp5xXnZCSZ5P1jK3xF+Dp5135PN5j5/Y78RyrlZuTtsxKwsujtsz9LPXI5WD1DIEYl0UakYwiIpPZZonSVMa8PKaetnbxsrceXzs8/RpG3FkwzY6k+xjltF8ZbFkEK3wIMVPewLBd8hDoIQg0gGger4IHkAETDERhTC6eSRNeASZIkxTNCzYewku5Ew0ZaBLuMkBoLIXwyDqIjRYC3wKwpA+xUs02xXvYdE0ExCNCjMaqECRBSsZChiiYGiM+5JJJbXcEORot6PgtrxZS7I1YtKbX7HfwMaO1wc+q1I4EfSpvXDLV6BN++/se5ox1xwtGuNEfJ5uvtY7T56+dP0OYJekS9n+D6NLHj7IpnjQfgk+9a/wAXzaXp8038FMsdo+g3YEOVo5eV6UudI3z9mevln8eOlHQh3cv0vjtycmzGlHx5O0+krlebFSJ5/oWOpj140vbZr1CRllF74DGD+fwdir05vxr4NdXpj9uCe+WvFecVX3J0s9M/S17f1MeT6a125+B/pP8AqXiuLGBH2Ns8SS7x/qUyp77X9SzqVz81REj7hTYmvcupliySEWxyaLKqaA4l1cNlqx37EvUXzayKO/ua6Kt/c0xwdPsbcfG0c+vpHTj51bgY+9PR38KhI5+LDR0ap6PH9Ppr08fNpnFLsU2T0CdhjyJvR5bXpnCrIyO6Md12wXyMlszpxdSxRlPucPM4bOplT32fJzLoP8nq+bzdRyZw32RPonQroXsWKjZ6Y4uWqiKlnXWCn8DywNfJvUxwnW0FVtnaWB8E/Q68f1GpXJjSzVj1a+5r/SsV0/I1mw9S4IwwraC4sMWK5MWfI00A1BEgN/gKa5JoJgaImFkKYbXyQXkgMKwwRNBSCGWif00LvhgitBpY3sXQuyaJgMmwR2FsMSYCK2BpbAuSwGLCl7A0TZTU2QDfIzCaGghgSaIBvkEvuRJkTKpZIKZGiaAYkVoA0UyYOt6ZP8np8F702eTwYPud3HyDl1Nb5eqpkXORw8fP1rk1rMTPF9Oc/Xq4buoq6gdaKZnH074snIonoEkysmmFnWn4RzsvBT8aOlsMYcnSdM3iVxYelLh9/hnRxfTU+51aKPsaYV6J19KT5Rih6avb+DVXgrRrrQ7OXuus4jBLEj8GO/CizqzZlu0PdW8Rx7MFPwY8j05a7L8HbsfBhufc68/SuXXEx5u3A6W+Fyc7Ip18Hpb4/BzLqW32PRz9v+vPfm5NdZvx8TfdF1OHz2OlRi6LftCfJlxcH4OhDAj7mqill8IHDv67/HXn5sn6JJgsp14N7iVWx4Zz9V08MkZa0XfW+TNJcgRLVka3bsqsJFgnIz5dYyXx4OZd37nUvMF0Ua4mM2OZeZL7vB0Mld9HIyYv37Hr4eb6QHkDV5UeDlXRafkT6j9z0Rwelrui13NmJKLet7+55GrLnHybsPPe+XyaR7KFMX4Wxoenv7mH0zKfG3wekxmmkLUxyLMHjsZ1iR7Ndj01laaObkw1vQ1LHK/RLky2Upb8m2bMdqLKzY52VHRRsvti9lX3NSsUiGJJCuJoEOwbAkA+2QGiAMwqAsmNXL3JrKKILNhc0CUitFI0SM0MgIokaQWxH7mdUs0RLgiQdhB0BohC6YHSHYH4C0VMRdyxv5K9k2yGLepfcqff7hgyPvsaA0QmtkSKo6LaePyI12LK1yTR06HwbKYtmOjwaKshRejn03Gv6b2acbafc56yuTVRJvk830n49PFdqi3waEzm0zNCn8nhv5Xq5/jS9FLFlckZZZXya5iWtqRohFHMhfs3UT2awn630osbKqixo49V0kMpglaVSloTq7mdbwztKbJklIqkymK7JmWaNM0IqjWsXlhdPJFhnRWMMoa8F9JOGOvFNEKdLsWDJmda8SIoidOiwW6ZZCwrZTPQjs5FnYWayRoraJZZpGZ5BqGLZplc5Cxv2TYVXJsrlHZZIBYmsF1Xc5WTT3O9KL9jBkVeDtz0x1zrzt1Bhsr0ehyMfg5WTVwernrXmvLkyemWVWaaFtrZXBcnRzeq9OyVuPJ6vAy0/J85pydHawPUH7ipXvoXJoqtSZwMP1Fs3QynLyZTVllCSObfHuzpzuTRzshd/lGozXNvMczZkrwjLZHsajFCXKQuhlwE1qKydH8jSW+wYDQv0H7/AMkLSDRXrwBQ2WvQhDC/TJNaLAaLqqxurQJRB0MVD74B20BdiaImpJC7CmRBUITRNFghNhkKipaHkZsiQriFRMMUINEyYZMdISI6RdAQ9XyDQIdyK6Vdo0lsyRNVMjNaSqX+Y7OI+Puc+qCb7HVx4JnDv+O3FaYdgWW6D1a7mDNy0jzf52vRO/xL8v5MTy09nI9Q9V/zaSZnoym2dp8sjnfp+vVYd2zs48zzPp72z0GP4OH0mO3FdmmRdKRjofBezy16JPwZ8ilnTwJ0mWlE5CtDzgDRdCdJZDkVkjwExeoiz0L9QSyzgqlnMpd4k5lUtd9msStDvMmVla8lc5nPzZs6c8OPXTW8tGa3L+TkXZWtvZhu9R35Ov8AlXL/AEdyebsR5Gzz8vUESv1FD/KrPrHoKru5fG7fweejme3/ACPDN2zN+djc+j0ErSKw46ym/sXV3Mnlp1eoz21JkpntF9aM7i45t9Jz8vCbi+D1Eq0/BTbVxp6OnH1cuuXgbaGuGZp1o9ZmYW32OLfh6f2PVz9NceuXKjHk2Y1mhLaQQidZdcrHf9PtOzTF+Dy+DN9ej0+JcuC4zWydT55MGWtHQss4Odmz4YjFcyyfdlcZAk9/sBdjbIglILElywmivJIsRx2PGITR6yB0QGj1BUtgkxImsVY0Tp5A2DZmA65DJbI5a18jRRaM8o6JsslDkmtEMKkRjFeywRhiHQ3SKA/CKpIsSJYTUJsLA3wRGlKkNEJOkygkUga4AFXJ8Ea/qVxZYlsK0Uw2b8ejsn+TLixfZHXprfHDMdN8njQkW9fStly15OR6jl62vY53mOn8dXF1Z3ff54Jl+gKf/e1+x5zG9elU3pL8bN+J/i2cu9e/2f8Ac3xzIzb1f4XL/wAHwScvqyb/APjwcT9E4Sa87PVr1x2Jr6aXHf2KaPT3Y+prls133zjXHFVelUvXJ6HHp4WhsP0zp8HYoxOFwfN+vUr2cc4opq7GqNJfDHZfCg8tdpWT6fwI6joqoSVZlrXMnUVSgzfOBVOJVYZQ0IzRYiqaKKim+ei6TMl/JRlutMc8kvtRzciWtnbiMdX8XPIOZnZr5QmRlaOVda5b0tnr+fLyfTpkzct/g5NmTI1ZFNnP+WX4Mc8efO0+H7M9XjHlvRfrMMb2V9LQmx5ienTpym+DXVdycWEjbRYc++Y68du3Cb4Ntc33Obis6lFbaR5O5j18XWzHs4N2PaYa6Waq4NHF1b4cjTh8Ax1waEgy5t2PzwjFk4O+dHoVWU20po1z3lY6n48Zmen+xzp42uNdj3FmHvwYp+nrb2j1c/Rw65eew8Z72drE2u/gthjKPGi3pR09uXXIW2/JzMi3ezdbSYZ1muemLGVRA+C+UNclLaOjmRvYApDaKiOIURogXIhAkC5CsmkIRsMLJa+QaFUhphUFctdgJkLA3Wxet7IiCixSDFFSLI7S/sICyFTbGW9CqcjWwLsBSICoEcSbJFhAcfgCgWoMl8gZ5dyF30SLFbJrc5UcnQwqdvtsrhiSXLN+JFrwZvROHW9PxF3Oo6FowYtmtGz668M5Xp1nDJk162cHMxnJtHobX1FCxvOjF+mOs4ecr9I6nydTE9GS8HYx8f4OlRScuvs68/ORg9N9Jiuek9Bj4CWtLQ2PSdOmvscb3a6+YFWIjXVirQ9SNKRnGb/VEcZe38sd0LwjRAbQ8MXqsUqimdfwdGSKpJE8tc9OXbjmedR1LfYx2ozkdpWCVaMd8PB0J9zJeuTLbn28GHIkdHIXBzb0Wf1KwXWfnRyc2b5OrfE42d2Z35c+/wCORm27D6fkR3pySMmds5j91tfue75PD2+iUSqkuXD53oxevXVxj0w6HJ+yR4ZWzXZv8svrvl3bb+/J6bXnz9V5VXxyZJVnUlJMy3oyY5/k2US5RmlEuqjyjHTXP9ei9NXB38ataRwPTX4PT4iXB5PpHs+TRVUM6TTUjQ9Hmehjrei+Fgk0UTYR0utaFZlhJl2uxEN0lNlWzRCIOk1LhkY7MZFH6U6TrB9I1Pox1zHMtxzFbQd+VSMF9Z25+jj1w4ttBklUda6szyqXg78d64dcsLj/AAUSnya5w1szWR8/B21zxFIDl9wQBLuVB2/n8Ig2mABHEJJsiNIbRNdwsikZQsExkuSSYIBUcRUPKQpYkHYUw62IuCqZR32C4NE3r8lkZbJVJ0+5HT52XqPwWxhsgxxqe2Msc314z2bIemSfglrU51x1Q0XU40m09Hdj6U34a/ZmmHp0kkmnr30cuvo68/NxXg8p9zfj+neTqKhJFlcl20cO/s9HPzYlgrSWgLA14OrHQ/SjlftW/wDNxfoMWMGdSykrVHPYzfo14U1V7Ncccvpq+DVCrk4991ucs1OOdCmpDQgXRXBzltbkXVwRqizNFjuZ15axshYWq9HN6yfUOuMXl1P1OgfqzmfVK7MhlT/LXWllrwI7/ucqN+vK/JPrv3X5MU/zdKVmyix/JlVwHM5VrDT7GO3kvnLgzWGGmexHPvgdOwyWRLz/AFL/ABxsmPf7HGzq3+T0GUjlZTR6OXOvNZdK20c62g7mbDnsYZwPXx083fLm/pCSxWjYobNFeO2jrO3Lw5MqmVTg+x3v0Dfhjw9Le1w0S/SH+bzkMVyfH8l9OHL27HpqvSNnQp9I14OXX3jXPycb0vHaXJ38WJfV6br/AHs11Yejz9/XXo54wtTLkmOqNDtnJ1ZpQ2BUmksqh8FZV0YuzasVcbL8elGhwSAxfRSKnFGu6RkbM0xXIVseSB0E0xlmuSiVZv8ApFboNys9cudPGTMt+PpPg7bp0VX1I6cdfrl3y8vbQ+WYJrR6bLo9l7nLsxfdaPZx083XLk75In79zZbjpGXpO2uNTpIOQqKNk2XugVY7NCtcoZLSL40ccBdTMiqKGVZbGGhmwrN9P4AqmaBovgsFMahlWWbQWxUqp0bLYY5Iz0XqRm1ZFlWLs6FHp/HYXBjto9NgY6ejle3Wc65+J6Y34O76f6R8HXxMJHTooS8HK/R255cyHpSS7C5GBHXY7jiYcpHLrp14eTzMRrfsc2UGj0Wdo5F1Z5+uneRnrs0aK7Sj6HJdClmNbxbHkd1v2DRSzdVVomrGaupmuuBa4kiiKiiTpH0RlixNg2LKaKbLkjry1i+UhOv5MdmQVfW2dGpw3StKLZmZW89yOYXyu6xlaZJTF+sYp4b/AKoPqnOeT9yQuOdjnjo/UYJMzK0Sd5nyyvtlx3MF9ugW5Bjts2akSqsme+7OTcdKyGyieOdJWbHFyY7KPoNvsdmzG0jN9Fm5053nWWjEW+3B0KsNaJUvc6VPZD2ThRTh+xtx8NeUX1tGmqJyvVanKvHxUvBpdK9iRYXbo52tzkn0SOI/1SuVhF8hLRnbLWxOk1FDpZsogUwRprlo6ObbVrRJTM7u0UyvIkG6woFlLbLIRMVpFEsUWWQqb7GiGO39xIViUCRoZ0YYr9i1Y5uSsVy50cGeVHwdmygz2U8G5Kx04mRQc66o9BdUY7sbZ25rjY8xk1cmCUfY9Rdhb9jnX4unrXY9HPTh1y4+mA6f0fgh09MeXP2NGxe5jcwG8c2+Ewuww9ZOpjFbHJMMWmY0vkKk/wDfAGpoP0zOm2aqotpBcGNSLI4yYa62aa4vjgzas5Z3iL2NVOInrg2UY0peDqYWBLfb+Dn103OVOFh61wei9Ohrx7ExcB+UdXFwdf8AB5uunfmY20Lt9jYjPVW0aUjGtizHla0zXLZkyEzNqxws2JypdzsZkWcmyLOFenlIx29GmmororOlRUZatwtVRodXsaqqfgtdJcrPuOf9MSUdG2VZnsXJcaliplcpjzZlunosjcLbMyXWAybjnXX/ACdpHbmLrLWVSvZnd/uVOezUdPxsd4VkbOc5iyyNDD8dKVxTK8xLI35BK5GMPxqdxZC0wws2WxmZceo6CsDJlEXsvgiOdUtFbqNvSLPgmssn0iu1F85GW2RUqm3X4M7Q1gIQbKyEImuiLBTQdGjHM2tSFqgzbCD0PXStF8YJGPTWKPpiypejZwEmqwfRZHUza2imU1yFZOhk6C2UkBI1HNIxHQ0Yh0bTFM9idBqjA0142+w/qMdWM2bqqPDRqpxWbqcN+UWcJ1cZ8aj4NtON5NtGNpdjRCg6c8ON7Yv0xHhrR0egScTp5Y9uTfjGG3H14O9OBnlQXyl6efsxWyueHpdj0Dxv96K7cfgYmvNW4i9jlZeNp9u56+WOvKMOThbN7jFjyf6f4Id/9CQbTHyxoEUXwp2XV4Tce/J7NeXGNjwib4enNrhMshgSS215Fq+ax9APot+DpRoflcBjWjMpIy1Ue5tqr8FlVabOpi4XU1wL1GoxUU89jfRjb1wdXG9Ifj3Oli+iS44ejFrUZMDC3o9Dh+nr2f8ABZh+mtfsdiqnSOPTcZ6sNaLlUaNEaOPUa1ncdELJoXpMNylKrY7LWDRmxqVx8mk5tuP7o9BbUZLaDlY9E6jm00L5OpjVArp8mymP9DXPKddHrgGUR0HRucuPpktgc+9dzq3I52Qu5ry7cVzLJmPImar0+THNDy9HNc+9tmKyDOpZEolE3I78uY4MnRo39C2RxQsatcuyDMl/B17Iow5FaZEcmVrTLqp7GnjrZZCvXYmBoTaNkDPGo0VIxjn01VmuD4MkC5SZnHOr0zPbIdbI6m/AnLFrHNlfRs6Cp+CSqL5S9OcsYtroSL3wI5oYyspijdSuDBVYbqZHLp15a4R0g6JB8FhyaVMRyDOWiidg1cLOzkRkHiiyoqUWWxiWRQyidZGCphjyO4F2PRs0zaeiv/bOjjUb/gONi/DOvj0a7I6c8uPXamnG+DdVUWRgXRSOsjj13pIxHCiNo1/HLS6FaC5oSU0NiwriK6xvqoWdy9xrWIqkJZSgSyF9xZXobF81TZSjPZimuVqK3aPUPNc/9L8ENfWgj1DzXxWqMUb8SCZxa5s7OAmey3Hl55dbGoNscLa7CYsNHZxII4Xp6uPnrkS9L3xoz2+kNf8AaerUUM60Z9t9fH8eRq9Ma8aOx6fjafJ03jpvsT6KQ9sf4ungqOjrUa0cCl6XBphkyXZl9n+Vd2LSHTOIsxltea/Ji1LxXWIyivITLVNGaxliaF6RyGMNV9JOktQNExdZ5QKpVbNWiOBny3OmSNRZCsucAxib55L2RRBIu0JNG/LMrJac+86OQjm3eRj08VhuRlur+DZaiqcXoY7c9ObbDgxT3s60qeGZ5UI1I7c9ObIqlvlnSeIVyoS7mbGvbj2zMsns6ORjexidD2TGvSjRbXU34La6NnQxqCYzemOOMy2OOzqKlEVAxzvTnxpZqroNNdKNMK0hkc7VVWL24LljIujPQLb0iWOdrLOlLwZroF1mStmW63fYziRlvMrRqt5KJIjULBGmqeiqtFiRy7jrK6Fd3HcaV/Bz0wdTONjpF91zKVN+4G9ltMf6mcU1aZohEFcTRCJ05jNpo1+5FAceEdnbHPQhXvwdDGo47DYlJ1sapLwbxw66TFp0jbWitMn1UjWyON2tGxXPRjuzUl3MN3qfyL3Cca7H1CuV69/5PPW+qfJiv9Sb3yZvbpz8nob/AFCK7Myz9R78nmZ5rf3KJZMn5M+nScSPSf8AUvl7B/1DfdnnFe9C/WfuS908x6KeZ8gWe/c4CyH7jK8nqnl6D9d8iPM7nCd7Ed7LtTHe/WkOB9dhG0yPF4+K+Fo7+Dhta7lWBUmd6ivsfT6rxfPk2NTrRvjwVwWhnM83Ve/58tVUixGGNqNdbMa64vrQzaQqkVW2EtTyE7tFUr9Ga60qdmyas5jasguhkM5kDXSalS8x06sto305m/Jxoh+prsXXHriPT03Jl2zzdOXrydTFylLyRw64/XRIiuMh0xjlYOidIxC4mlcSaGAzUNAqsZaUWFan9Z7pryYp6LskyTLHo5qqfcqlEtkLJlblUziZrXo0zObkT5ZK680bbEkZZWFN93yUxtJjbS3sT6KBGe2aK4jyz6UV4/OzXXAvrpH+ky4l6VdIrRZKDFlEmMegTK53Ms6GKqX7GfJbqmVjKpybNM6gfT34Fn4jC0IbpVIT6CMZqMiJ0IudbI62LMWVTFBRbGoLpOPUdObqmSE0aJVg+kzleXSVXVE1wgSuovgiYujCIdhkCJucudqxG7Fh8GOiHJ1qEjrjGtmLFI0uejJGzSMebmqPkrnjffmKK7nKyvUe/K/Jxsr1Pvyc23Nb8mN1qcupk+ovk51uezJZcymyxMXmteWp5jYksoxSkyl2/JMp/HT+vyN9RLZx3Y/cP1X7lynp2Y5BJXHI+oyK9+CeV12Y2L3LozOBLLa7sspzPknlHfSEnEwQzPk1U5MdcvkuJhyB+qiDDHDwLt8vx2O7hX7PE4mW4nZwM35/Y+p1Hg+dketjYLZM5tWYuDQr0+zPN1K+l8rMXxZprsZiVg8bTFjrbHRdzM9trKHd9zPbkGaLZSFhIx/X5Ghbsg6VbRprkYKJbNEZFiY1uzRTZf8AJnst0Y7skrNjXLK0dDDz9fDPOStGryGmHPrl9AxM5PydCFuzwmDnvg9Hh52zTz9cO+mTZlhkJlnWVw8rthKYyLEzUMMU2xLNiWM0RgvSMVkOToZDMNsix35Zn3ZXN6Q87e5jtvQx0hb5nNyZ9yzIv5OdlXb2R1jPkWCwZnc9llbGL6b8Y3Qmc6qWjSplkc7f1065lqmjlxvBLI+5DXT3H3BPX/Byf1MvciyvkYjq8aF60c6WS/cr+s/cyOlbNFTt0Y/qkc9kGiViZIy9jPosrZMwXuOwfTGhIczRR0k0WEZys1rnrFWg6G2FInlr0NcSwMKtmmrEbLPme2Voldb2dWv0/Ztq9LXwdP8ANzveOfRRo01RZ0oYKQ8cY3/m5+3FyptbOFl9T2e0twOozv0ZfBP8z28BHGm+5ZD02TPex9Hj7LsX1elxXhFny/Uv1/Hgq/R2/A69CfsfQ4+nw9kOsGPsdP8AJn/Z89X+H2/+0rl/hp/+J9I/SoWdKS7D/PE/1fNv/wAc1/2iy/w/pPjk+hToXsjNbjL2F4jc714Cz0XS5RzMjAlHsj6Ldh7MN/pyfgzeF9vm+RRJeCiMZI+h2+jRfhHMyPSEt8Izfmvt5iLfuW1Te+5tyfTWuxlliyRzvLU7XfW+SFH02Qzla9R5nq/JdRlOJn7FiifUsfL11qPUnwdKrN3o89XDSNlTfBzvLpz9rHpaLt+TWn2ONhze0dnHjtnLriO/H3tp2mZL0+TqqrjhFF9PD2cvL08fW1xnIauzRLq9NmKyeiWPRLrr03mhZOjgxyNeQ/qkl3Irp5GXv/kyyvME8rZVO7YTHSV/yWV2cnNgy6u3QZrs4szt4N3ZHl8e7k6WJkvYc+o9ljX9jfC7/ezzGHlnSryeCvPY7Ebh/rnIjeMsk3HPy7Ct2JO3g56ygvIXuaJyORd8fyc3It7j5F+uxzb8juG4luQc2+97DbcYrZldORtu2ZbJi3ZCOfkZSXkjetErCQvOPfnJLuZo+p8hNerheaI27PO4+emkbqr/AJLo6/1kvJOvZzfqBhcQb29h+mZIXFv1fkDUho1plNdiLo2GQ6rQVASVg0bAzp3AmkFS2Bg09b5LesoRNGbDVyQNCxl/JqqqM+TVMaWzVTis242J5OnRifBucHphowv96OjVjJGiNGi3pOk4xzvSuFaRcogSGZvGbRQUKK5BnF2woqjMs2VkyZZBlOydeixm/wAaUHRRG5F0Zo050XEotgaOoSQXm2MEolLZunWZpVPuZsdZWeUNlNkEXyTRntZGoy2QRiux9myybKpTM0cq/C/3o5uVi63/AGPSza1yYrqU2znY1K839FexDtfpUEz5a18rlWPXEmw1L+D3vA0QgX1tGOUmuSfW34MUd/CfY9BgrZ5L069rTa1/qem9OyODl07cPQVQ4KsiklN20PZZwef/ANejmuJm0+DiZVR6XJXk5GTWV6eO3Dae+RdG6yllEquRjp6UNbHVXYu+mPXEYelSgx4xZo0gDFGiJ0aJI58UbcdExz6dPHs0b6bvk5UZaRZCxhzrsxuGlY/c5kbGXfVejTONkbfkEr9eTDOwy2WssZbbsnvyYLr+/Jkut7nPnkv3KNs8ox3ZafGzHbaZpWMNRbk2/PJy77dplt1hlcGFZLJN8CLezoQxfOiPE+A1jLVe0dLDzfcy2Y+ta0UNSXITHoI5Oy1SPP1XSXnR0KMvhGldWuRbGwwwuXuWQuRlMdCEyzr9jJVZwWQb9wVrjYMrWZ65FnUGWiu3ZdGRihLRdG1EsGuLGiZVaaqnsmDRRT2+518Sn4M2HSd7Cp7GpGeqtxcfg3QrRK46HOkjh1f0k0IPJiNl1YhNgI2NaRsochpyM1szGt88rfqF8JnNjYzXVISnXLU2VWTHT9zLkzS/k25WC7h45fjZyLcjW+RK71vexrPl6KvJRarTiVXr3NEcj5GmOn1CyZhWST9Syq0T0ZLoIf6xXKWyDLbUZZ1m20zSM1qMk4sofc22Iy2sgqIL1BGD5NoHW9AnLjRSz1PGulJ6GpTbKYGqlaMrHRw48/g9BhrRwcZ6ezt4NzOPbry71K4Ra0ZseXYtlN7PN/69PP8AAsr2ZrcXZpUzTSk1osa3HBuwmkznWY57GVUX4MORiJeDch/o8rOGgHVycfRzrIldJ1quUiJhJHkzV9LKls20Iz1rg01gtaUw/UaKXIrtkGGv6zL4XcHKjIurmgVvsmVsaqQZyDLDkw7nNupO5KOzFkQ5ekWDjTqKPos6sqSLH2VXIeMFY/B1nTpFMq0GuWKukM6TV0kcOQ7RglibElhnQ0HpA5Kwn7A/TNHXaKp1hMc9B+s12L5UbM9mPoIsryX7mmvKZzPpvuSLaYYrsxyX5D+r+TkWuX/AFJ+4ZdyvJ35L6rvk4NVz3ydCiS2gV1ozZ08NbORQ96Oz6eisvQ4KR3MRcHFwUd+iPCNxnpciNkEZXJJsTYZMVsxf63P4nULKQspGa6zRl0nI22mKV/PcS7IS32MDyUZ16OeXTjabKLTi0XbNkJljPUdOdy0YMrIKbLtHMy8j/U1rjYOXeimOSYbbgQt2NZderINVWScOufJqqs0Iljrq7kKt+X+TnxsLVaa1ixvjYx3aYFMs+rssqNbZVNFfWBzJWoFpjtNU5IzWSRFUb+CDbQQPjux4x2VqXsaKY8Hq14jVRWzT4K6IPfY6+F6bKeuDn1cdOeVGLW3/AAeh9OwZSfY6XpfoC1uS9j0eLgxh2R5uu9d+eccuj096QJ0aOxZHRz8lcHLXWOdPWx6rTPeUxs+TfKdO7TJNDTSaaZz8S7tybutM6xzcvLo3xo5WTi+yPQ3rZgyIbJWpXn5UfBI16OlZVoqdaI6elEEy6AY6ImDRFmuGOgMDM0Ct6ZfOsrdRkbKZGjZhhwXxkBekLKCYvUDrASyleEJKnfwXKxEc0WDPOtFM6kaWI0VqVjlUVyibJwKekOnPTM0A0yiJ0INaoYNbNDigKITWZwKpwNzgKq/INYHUK6TodHwN9HYY1zXUVWUs630CqdQZc2EDZjw0+xZ9DkvrqCNFHc7vp0dnEpXJ3/TF2LEr0np9R261wjk+n+DrwZuOfQsSTHkVTZKkK2VzkCciiywxrtzyeUjDlWdw23/Jy8nJ78mdd+eVOVZ3Oa7wZeQc2zI0Zbdyi/5N1N/yeWpzO3JtjnpLuacq7ORkLXfscrJyee5jyMva7mSd4jF/jXZaSuRjU9l9bNOdb6pcmmMjFVIvhMM1rUiyEzKpDKYRsVwysMfWhlI1Ebo2bA7DJGQer5Gi2cm2JIkWSTMhSEIB8phS/wBzrem+mTsa0j0Xpn+Guzkt7PU4HpUa+yNdfb/jPPyee9M/w17r92elxfSowS0kboQ12L4o8/XdrtPnhIR0uyGaH0TRnWvLNYtmHLrejpTRlviNR5/IraME+Ds5UOWcfK8mpUs0achI305mzzttmg15bR1lYx6d2lEzn0ZW/wAGnr+dlQtqM04mib2UyCqWtCFs0J0BRDoRyI5hrTP7kK+pd9fyR2BVjGhIy2WoSNxMHQ2BszQtHhLZA+yB6RdATqBsSS7lcpFgslYU77izmJ1lDOwPcpnIHWF1cMihSLK5A067jdP2Agg0VHgDQUQBSqZaymYoaIXL2EXBNkiNND538Hc9Pt0zz1M9M6+DP/MUezwL/B1YWcHnMC/sdJZI0866E7UZbclGa7IOdkZSJa3Pm6FuSvcyXZPyYHkfJRZf8mXbnlptyTnZF75K7crRgvyu5lsMq34OdYyy2/ZnnI6zl5+uwcyK37lckCMS4x7XRsGbKYxLoDGdNE0QkUqJbBERsqlosjIyQkXRkBtjYN9VGRTJ1hK2RsQ6mYOv5HhYExucybMsZlkGQxqhIfqRmUtB2NjONP7kM2yDYPT142ixVF4NHmtr0+SdAdDaCNaDQGMCSGpVVhiuNtiMc0GbHNyYdzj5UP5O7ko5WVHb/YJjzmWmnoxStaOzlV7OTfVs3z0zYuxso6FWV7nBfHYP61o7SsV6ON+ySkcXHzzXHLKjZ1CuwqlYI2TGjuQNibEbKq6ckkUTt2V2SK2A05lfWDpJ0kqrabDbTM5sO5ton2IroxCoi1MdAJbXwZJwZvFnEDmSgyuaaOhOrZRZVosoxMRo0zrK5VlCpjwkL9NlldTAfY6YPpsZrgmiJizkTwRx2NCOwVcjdAGLQJFbmSyXJVNki4urs5OphXJHEgaqJaNI9Zh5evY6MMmLXc8jVkuJoWfryStc3HoLsn5Md15y36gn5KbM0jrOo23ZaRitzzHffsxysGF7b7czZlsyN8GN2ciSlyanLlfo09RIvZm62WQsNuNrR0kUWgxs2OgmkSGTABvQsa1f1B+oZpzB9Qzg3KY0bFsw/WH6yK2O8X6zMrsBtgbFaWV2GKBdWmiUdCuZprZioZenyQXplqRRDuaYpEZwuiFnQEYY9cQUh5tekxBQoaCBkINFVnczzga5IqmteBpY5l0DmXQ7nZuRycnuxazjkZUDm21fB2Mjv+xz7xOsPLkXw+DnW/g7lta/kw346Z1nf4xeXJc2n3LK81ru+B7sZmC6to6Ttny7FfqXyba8zZ5LbTL8fMce78mpdTHrVdsXZyKfUF8/k21ZO+39RqtEkBIeLTQ2kUV9IpY4lUyVYST5Lap8lEmCEiK6+PajXFnHxrDo02gaooLQISGASUBXA0RgF1gc+yoT6B0HSL9MujEqV7DRgaXEGgKHEDrT4NHQHRBk+lokoI0WQRTNcAUtFM0XMpT7hYqktiqrZf0lkIBaqjR7jdCRaVWMsZVznoplayTk2VMqaf6rA7GIydRcTasc/kWfIrC4lxNqvQJIdEkisqAaCyAWV26L4XGXXsMpeC4jVGwkpGdT0CVoNWSs0B2FP1PfsB2L3JY1K0t+RozMiuXv+St5Pzx8GcVvUx4zOb+qXuXwu47kakdCNiNMZbOdVPg0Qm/f+TOrjo1djRBmKqZrrZNPLRW+TRFlCQ0HyNZsaur5CUbANR7TQNDEZ5cd9KQhCYAQJAoAmOVyKM1iOVkwT39mdmxHNyaxg87dBrZz7Y6O1l0nMugKMUyu6Pb9yyfBVOQ0xntRjuqRstkUS5NamOZdQYp08ne+mimzET5RudJ5caMWW1ZDi1rXsbZY5idP9Tp6Ty10+oS2a4+o8nJdb59hHFj2vl2p5/JZ+tR5/bG5JKk5dizJRSsz5MK2UyNSreXaxcv3fk6+Lbs8hTJ7ffk7/pdvyVmx6GlmutHPwpNs6taCHghmgId9gEKbUX6K5QAoaAkWtCMBQD6A0BXJGdw7mvgWSAwyr4Aq9Gtw9xHr7BVLSFkw22IyWWiGrJ26M857K5TK52pdzTNO2K2Z3kIrnkfIRoU14CjJX2/3os5NRK0x2Wb0V1rgYojQjH3wVthFckBIEpJd2JPIiv8AuLjOrNhizmXZuvP9iizP1+5U10rrUvyUTykji5Wc3wnrRleW/LLia7U87S+5RLMZx3k9lsKu3xsljUrrPJeu40b2l7HIV+n3Lo3ozea3Oo6MbWaqrXo5SyUX1ZS79kjN5rc6jr1XNG6GQ9I4dWcm+xvqu38GMxqdSuzTkG6m75OJCRrhIxa6SO7XcmaaWcSm35OhTaNZ65dLZDN1AGseXqnmy9o/grh6jNtLUfw/7kIcFPbnzS3w/uin/qk/aH4f9wEKRP8Aqc/aH4f9yL1OftD8P+5CEraP1Kf/AIw/D/uB+pT/APGH4f8AchCQVT9Tn7Q/D/uZZ+oS/wDGH4f9wEKMGXlyfiP4Ofde/j8AISjBfc/gxW3MhCKq+vIiuZCGkH6zJ9Z8gIaFU7GYrrO/CCQ0qiN7fhfz/cS2zjsv5IQqMs8hpriP77f+pdjXuW9pLT8EIagXIypRetLt53/cq/Uv2j/P9yELAI5cvaP8/wBzt+nXPj/5f6EIaZ6d/BvZ0YZMvj8EIGF9WVL4/Bb+pl8fghAGhe/j8C2ZMl4j+62QhRTLLftH8CvJl8fgBCAu9/BT+ql/7fwQgEeVL2j/APUjypfH4AQCuWRL4Ml2VJPhkIIjNPIk97Znna9kIaVntvlyZMnIloJAlZHfL3Kp5EktkIEX4uZJvXH8/wBzoq1/BCGolaarGGdrIQoonfLYPqsBAjNlWMwW3S/gBDTLn5V8tGWd8m+4SFc2aU3vuLKbIQ0K3N8fceFr2AhYLtjQkQhURzZI2PaIQlWNsJvX4Oji2vRCHDt14dei18fsb6bX8EIee/16+P4tVrNNeRLZCBqtX6mXwQhAy//Z;" vertex="1" parent="3IBphvjYudPTPOBFQOcQ-308">
          <mxGeometry x="64" y="236" width="104.12" height="96" as="geometry" />
        </mxCell>
      </root>
    </mxGraphModel>
  </diagram>
</mxfile>
